<svg id="brush-24px" xmlns="http://www.w3.org/2000/svg" width="40" height="40" viewBox="0 0 40 40">
  <path id="Path_257" data-name="Path 257" d="M0,0H40V40H0Z" fill="none"/>
  <path id="Path_258" data-name="Path 258" d="M10.333,21.335a4.993,4.993,0,0,0-5,5A3.382,3.382,0,0,1,2,29.668,8.623,8.623,0,0,0,8.667,33a6.665,6.665,0,0,0,6.667-6.667A4.993,4.993,0,0,0,10.333,21.335ZM33.183,5.718,30.95,3.485a1.66,1.66,0,0,0-2.35,0L13.667,18.418,18.25,23,33.183,8.068A1.66,1.66,0,0,0,33.183,5.718Z" transform="translate(1.333 1.998)" fill="#fa9725"/>
</svg>
