<svg id="storefront-24px" xmlns="http://www.w3.org/2000/svg" width="40" height="40" viewBox="0 0 40 40">
  <g id="Group_141" data-name="Group 141">
    <rect id="Rectangle_37" data-name="Rectangle 37" width="40" height="40" fill="none"/>
  </g>
  <g id="Group_143" data-name="Group 143" transform="translate(5.005 5)">
    <g id="Group_142" data-name="Group 142">
      <path id="Path_150" data-name="Path 150" d="M31.857,12.817,30.281,5.533A3.031,3.031,0,0,0,27.415,3H6.574A3.032,3.032,0,0,0,3.723,5.533L2.147,12.817a6.115,6.115,0,0,0,.93,4.8,6.146,6.146,0,0,0,.42.483V29.667A3.19,3.19,0,0,0,6.5,33H27.506a3.19,3.19,0,0,0,3-3.333V18.1a5.9,5.9,0,0,0,.42-.467A6.094,6.094,0,0,0,31.857,12.817Zm-4.486-6.5L28.946,13.6a2.456,2.456,0,0,1-.375,1.95,1.719,1.719,0,0,1-1.41.783,1.97,1.97,0,0,1-1.816-1.9l-.87-8.1ZM18.5,6.333h2.941l.81,7.533a2.409,2.409,0,0,1-.5,1.783,1.715,1.715,0,0,1-1.425.683A2.038,2.038,0,0,1,18.5,14.15Zm-6.767,7.533.825-7.533H15.5V14.15a2.047,2.047,0,0,1-1.936,2.183,1.735,1.735,0,0,1-1.335-.683A2.548,2.548,0,0,1,11.735,13.867ZM5.058,13.6,6.574,6.333H9.53l-.87,8.1a1.982,1.982,0,0,1-1.816,1.9,1.688,1.688,0,0,1-1.4-.783A2.392,2.392,0,0,1,5.058,13.6ZM6.5,29.667V19.617a2.46,2.46,0,0,0,.345.05A4.482,4.482,0,0,0,10.2,18.083a4.6,4.6,0,0,0,3.466,1.583,4.534,4.534,0,0,0,3.346-1.55,4.678,4.678,0,0,0,3.436,1.55,4.545,4.545,0,0,0,3.361-1.583,4.482,4.482,0,0,0,3.361,1.583,2.46,2.46,0,0,0,.345-.05v10.05Z" transform="translate(-2.005 -3)" fill="#fa9725"/>
    </g>
  </g>
</svg>
