<svg id="add_chart-24px" xmlns="http://www.w3.org/2000/svg" width="40" height="40" viewBox="0 0 40 40">
  <path id="Path_148" data-name="Path 148" d="M0,0H40V40H0Z" fill="none"/>
  <path id="Path_149" data-name="Path 149" d="M7.608,13.832h2.8V24.68h-2.8Zm11.217,4.649h2.8v6.2h-2.8Zm-5.608-9.3h2.8v15.5h-2.8ZM27.238,9.2V4.55h-2.8V9.2H20.228v3.1h4.206v4.649h2.8V12.3h4.206V9.2Zm-2.8,18.6H4.8V6.1H21.63V3H4.8A2.972,2.972,0,0,0,2,6.1V27.8a2.972,2.972,0,0,0,2.8,3.1h19.63a2.972,2.972,0,0,0,2.8-3.1V20.047h-2.8Z" transform="translate(3 3)" fill="#fa9725"/>
</svg>
