<svg id="campaign-24px" xmlns="http://www.w3.org/2000/svg" width="40" height="40" viewBox="0 0 40 40">
  <path id="Path_272" data-name="Path 272" d="M0,0H40V40H0Z" fill="none"/>
  <path id="Path_273" data-name="Path 273" d="M30.8,18v4H38V18ZM27.2,31.22c1.728,1.42,3.978,3.3,5.76,4.78.72-1.06,1.44-2.14,2.16-3.2-1.782-1.48-4.032-3.36-5.76-4.8C28.64,29.08,27.92,30.16,27.2,31.22ZM35.12,7.2C34.4,6.14,33.68,5.06,32.96,4c-1.782,1.48-4.032,3.36-5.76,4.8.72,1.06,1.44,2.14,2.16,3.2C31.088,10.56,33.338,8.7,35.12,7.2ZM5.6,14A3.827,3.827,0,0,0,2,18v4a3.827,3.827,0,0,0,3.6,4H7.4v8H11V26h1.8l9,6V8l-9,6Zm20.7,6a9.422,9.422,0,0,0-2.7-6.7V26.68A9.339,9.339,0,0,0,26.3,20Z" transform="translate(0)" fill="#fa9725"/>
</svg>
