<?xml version="1.0" encoding="utf-8"?>
<!-- Generator: Adobe Illustrator 24.2.3, SVG Export Plug-In . SVG Version: 6.00 Build 0)  -->
<svg version="1.1" id="Layer_1" xmlns="http://www.w3.org/2000/svg" xmlns:xlink="http://www.w3.org/1999/xlink" x="0px" y="0px"
	 viewBox="0 0 218 181" style="enable-background:new 0 0 218 181;" xml:space="preserve">
<style type="text/css">
	.st0{fill:#27264F;}
</style>
<g>
	<path class="st0" d="M20.23,119.27c0,0,0,0.01,0,0.01l0.01,0C20.24,119.28,20.24,119.28,20.23,119.27L20.23,119.27z"/>
	<polygon class="st0" points="188.81,56.7 188.82,56.72 188.82,56.72 188.82,56.72 	"/>
	<path class="st0" d="M217.74,48.02c-0.8-1.17-1.61-2.33-2.69-3.28c-0.7-0.62-1.43-1.2-2.27-1.63c-0.45-0.23-0.92-0.43-1.38-0.64
		c-1.45-0.66-2.95-1.16-4.54-1.36c-0.34-0.04-0.67-0.05-1-0.16c-0.13-0.04-0.28-0.04-0.42-0.06c-0.39-0.04-0.8-0.02-1.18-0.11
		c-0.84-0.19-1.68-0.18-2.52-0.14c-0.71,0.04-1.41,0.08-2.12,0.1c-1.36,0.03-2.71,0.13-4.06,0.29c-1.46,0.18-2.93,0.28-4.4,0.29
		c-0.14,0-0.3-0.02-0.42,0.03c-0.35,0.15-0.72,0.14-1.09,0.12c-0.49-0.03-0.96,0.02-1.44,0.09c-0.53,0.08-1.06,0.16-1.6,0.24
		c-3.03,0.48-6.01,1.18-8.98,1.9c-1.44,0.35-2.83,0.81-4.2,1.36c-0.42,0.17-0.85,0.31-1.29,0.44c-1.55,0.46-3.06,1.05-4.55,1.66
		c-0.89,0.36-1.78,0.74-2.66,1.13c-0.21,0.09-0.36,0.06-0.53-0.1c-0.46-0.42-0.93-0.82-1.42-1.22c-1.27-1.04-2.54-2.08-3.83-3.11
		c-0.57-0.46-1.16-0.91-1.76-1.33c-0.75-0.51-1.52-0.98-2.28-1.48c-0.12-0.08-0.21-0.19-0.31-0.29c-0.02-0.01-0.02-0.06-0.01-0.07
		c0.02-0.02,0.05-0.03,0.08-0.02c0.72,0.13,1.4,0.39,2.12,0.52c0.14,0.02,0.26,0.12,0.39,0.17c0.36,0.15,0.72,0.34,1.1,0.45
		c0.57,0.17,1.15,0.32,1.67,0.62c0.21,0.12,0.44,0.09,0.66,0.07c0.03,0,0.06-0.02,0.08-0.04c0.01-0.01-0.01-0.05-0.02-0.06
		c-0.17-0.2-0.4-0.3-0.63-0.41c-0.46-0.22-0.93-0.42-1.35-0.71c-0.53-0.37-1.08-0.73-1.65-1.03c-0.83-0.43-1.58-0.99-2.49-1.26
		c-0.08-0.02-0.16-0.06-0.23-0.11c-0.59-0.41-1.26-0.63-1.9-0.91c-0.52-0.23-1.06-0.4-1.58-0.62c-1.17-0.5-2.43-0.74-3.6-1.25
		c-0.48,0-0.83-0.33-1.24-0.51c-0.02-0.01-0.04-0.04-0.06-0.06c0.03-0.02,0.07-0.05,0.09-0.04c0.19,0.05,0.38,0.1,0.58,0.14
		c0.82,0.19,1.65,0.38,2.48,0.57c0.08,0.02,0.17,0.01,0.25,0.02c0.67,0.1,1.34,0.18,1.99,0.38c0.84,0.26,1.68,0.52,2.52,0.77
		c0.11,0.03,0.22,0.04,0.33,0.04c0.05,0,0.11-0.05,0.13-0.09c0.02-0.04,0.02-0.12-0.01-0.15c-0.28-0.24-0.56-0.47-0.84-0.7
		c-0.63-0.54-1.33-0.97-2.07-1.32c-0.95-0.44-1.91-0.86-2.86-1.28c-0.02-0.01-0.05-0.03-0.07-0.05c-0.01-0.01-0.02-0.04-0.01-0.06
		c0.01-0.02,0.03-0.05,0.06-0.06c0.42-0.1,0.84-0.13,1.25-0.02c0.58,0.16,1.11-0.04,1.65-0.19c0.1-0.03,0.19-0.12,0.25-0.22
		c0.14-0.23,0.16-0.48,0.03-0.73c-0.15-0.28-0.33-0.53-0.63-0.67c-0.15-0.07-0.31-0.15-0.45-0.23c-0.52-0.29-1.05-0.55-1.67-0.54
		c-0.08,0-0.18-0.01-0.24-0.06c-0.62-0.43-1.35-0.57-2.05-0.81c-0.11-0.04-0.23-0.06-0.31-0.13c-0.27-0.23-0.61-0.29-0.93-0.41
		c-0.98-0.37-2.04-0.52-2.94-1.08c-0.09-0.06-0.21-0.07-0.32-0.11c-0.4-0.14-0.8-0.28-1.2-0.42c-0.24-0.08-0.47-0.19-0.74-0.13
		c-0.11,0.02-0.22-0.01-0.33-0.02c-0.99-0.13-1.95-0.39-2.88-0.71c-0.82-0.28-1.65-0.4-2.5-0.42c-0.29-0.01-0.56-0.04-0.83-0.13
		c-0.76-0.25-1.54-0.36-2.33-0.41c-0.59-0.04-1.19-0.07-1.76-0.27c-0.16-0.05-0.34-0.05-0.5-0.1c-0.8-0.21-1.63-0.21-2.44-0.27
		c-1.16-0.08-2.3-0.26-3.45-0.4c-0.67-0.08-1.35-0.18-2.02-0.22c-0.79-0.06-1.58-0.08-2.37-0.11c-0.79-0.03-1.57-0.16-2.36-0.06
		c-0.08,0.01-0.17-0.02-0.25-0.04c-0.45-0.11-0.89-0.07-1.34-0.01c-0.2,0.03-0.39,0.06-0.59,0.07c-1.13,0.03-2.26,0.05-3.39,0.09
		c-0.57,0.02-1.13,0.04-1.69,0.08c-0.5,0.04-1,0.11-1.51,0.16c-1.8,0.16-3.08,0.28-5.02,0.72c-1.02,0.23-2.08,0.27-3.08,0.59
		c-0.03,0.01-0.06,0.01-0.08,0.01c-0.18,0.02-0.34-0.04-0.45-0.18c-0.07-0.09-0.13-0.18-0.19-0.28c-1.23-1.91-2.52-3.78-3.89-5.59
		c-0.64-0.84-1.26-1.68-1.95-2.47c-0.71-0.81-1.44-1.59-2.03-2.5c-0.69-1.07-1.59-1.99-2.41-2.96c-0.22-0.26-0.46-0.49-0.71-0.73
		c-0.71-0.68-1.42-1.36-2.14-2.04c-0.41-0.39-0.8-0.82-1.26-1.14c-1.06-0.75-2.03-1.62-3.2-2.22c-0.68-0.34-1.3-0.8-1.93-1.23
		c-1.28-0.9-2.65-1.64-4.06-2.28c-0.85-0.39-1.69-0.79-2.6-1.03c-0.38-0.1-0.73-0.3-1.1-0.44c-0.24-0.09-0.48-0.18-0.72-0.25
		C70.5,1.07,70,0.95,69.51,0.83c-0.39-0.09-0.77-0.2-1.16-0.27c-0.64-0.12-1.29-0.19-1.92-0.33c-1.41-0.31-2.81-0.31-4.2,0.06
		c-0.63,0.17-1.25,0.36-1.87,0.55c-0.08,0.02-0.16,0.05-0.23,0.1c-0.91,0.63-1.83,1.24-2.61,2.04c-1.45,1.49-2.43,3.26-3.2,5.17
		c-0.26,0.66-0.42,1.35-0.77,1.98c-0.17,0.32-0.22,0.7-0.31,1.06c-0.03,0.14-0.02,0.29-0.06,0.42c-0.34,1.17-0.55,2.38-0.73,3.58
		c-0.12,0.84-0.27,1.68-0.32,2.53c-0.13,1.83-0.21,3.67-0.3,5.51c-0.07,1.3-0.08,2.61-0.01,3.91c0.02,0.4,0.04,0.79-0.08,1.18
		c-0.04,0.13-0.05,0.29-0.02,0.42c0.16,0.64,0.1,1.3,0.12,1.94c0.06,1.3,0.04,2.6-0.04,3.9c-0.02,0.25,0.02,0.51,0.02,0.76
		c0.01,0.63,0.19,1.23,0.22,1.85c0.03,0.58,0.16,1.12,0.33,1.66c0.11,0.32,0.23,0.64,0.32,0.97c0.38,1.37,0.64,2.75,0.88,4.15
		c0.38,2.3,0.75,4.59,1.13,6.89c0.03,0.19,0.01,0.33-0.14,0.45c-0.41,0.35-0.81,0.71-1.21,1.07c-3.85,3.48-7.81,6.84-11.78,10.19
		c-0.78,0.66-1.55,1.33-2.29,2.04c-0.86,0.83-1.76,1.59-2.75,2.26c-0.3,0.21-0.58,0.45-0.87,0.67c-0.89,0.7-1.77,1.41-2.67,2.1
		c-0.88,0.67-1.77,1.32-2.65,1.98c-0.68,0.5-1.36,1.02-2.06,1.49c-1.51,1.01-3.03,1.99-4.55,2.99c-0.66,0.44-1.32,0.89-1.97,1.34
		c-0.77,0.53-1.53,1.07-2.3,1.6c-0.65,0.45-1.33,0.87-2.06,1.18c-0.58,0.24-1.16,0.45-1.74,0.7c-1.12,0.49-2.3,0.8-3.47,1.15
		c-0.59,0.18-1.19,0.33-1.78,0.53c-0.77,0.27-1.55,0.53-2.33,0.8c-0.37,0.13-0.75,0.26-1.07,0.5c-0.18,0.13-0.18,0.13,0.04,0.32
		c0.05,0.05,0.12,0.16,0.1,0.19c-0.22,0.45-0.52,0.79-1.06,0.88c-0.44,0.08-0.89,0.19-1.32,0.3C4.5,85.69,4.2,85.72,3.96,85.9
		c0.3,0.09,0.59,0.16,0.93,0.04c0.36-0.13,0.77-0.14,1.17-0.1c0.56,0.05,1.12,0.03,1.69,0.03c0.56,0,1.13,0.03,1.67-0.11
		c0.31-0.08,0.61-0.09,0.92-0.1c0.2-0.01,0.4,0,0.59-0.03c0.98-0.14,1.98-0.11,2.95-0.29c0.25-0.05,0.51-0.04,0.76-0.07
		c0.16-0.02,0.27,0.04,0.35,0.18c0.03,0.05,0.06,0.1,0.09,0.14c0.64,1.01,1.28,2.01,1.91,3.02c0.02,0.02,0.03,0.05,0.04,0.07
		c0.07,0.11,0.03,0.22-0.11,0.27c-0.38,0.11-0.77,0.2-1.14,0.33c-0.96,0.34-1.96,0.52-2.96,0.67c-0.58,0.09-1.16,0.25-1.77,0.15
		c-0.08-0.01-0.18-0.01-0.25,0.02c-0.27,0.15-0.55,0.07-0.83,0.09c-0.34,0.03-0.67,0.02-1.01,0.11c-0.49,0.12-1,0.13-1.51,0.08
		c-0.59-0.06-1.18-0.1-1.77-0.17c-1.6-0.17-3.23-0.08-4.78-0.59c-0.21-0.07-0.45-0.04-0.67-0.06c-0.08,0-0.17,0-0.25,0.01
		c0.02,0.1,0.02,0.23,0.08,0.3c0.08,0.11,0.2,0.2,0.3,0.29c0.63,0.54,1.38,0.87,2.12,1.21c0.43,0.19,0.67,0.51,0.84,0.9
		c0.04,0.09,0.06,0.25,0.01,0.32c-0.13,0.17-0.07,0.32,0,0.48c0.08,0.18,0.19,0.35,0.27,0.53c0.11,0.25,0.13,0.49-0.11,0.7
		c-0.04,0.04-0.11,0.08-0.11,0.12c0,0.07,0.01,0.19,0.06,0.22c0.12,0.08,0.25,0.12,0.39,0.17C4.05,94.88,4.19,95,4.3,95.18
		c0.36,0.61,0.69,1.23,1.02,1.85c0.07,0.12,0.09,0.27,0.14,0.4c0.29,0.86,0.65,1.69,1.18,2.43c0.1,0.14,0.22,0.28,0.25,0.43
		c0.1,0.5,0.56,0.77,0.74,1.21c0.41,0.18,0.52,0.57,0.66,0.94c0.07,0.18,0.18,0.35,0.3,0.51c0.34,0.45,0.74,0.87,1.04,1.34
		c0.52,0.81,1.07,1.59,1.65,2.36c0.24,0.32,0.47,0.63,0.54,1.04c0.03,0.18,0.17,0.36,0.27,0.52c0.45,0.72,0.94,1.41,1.43,2.11
		c0.6,0.85,1.25,1.68,2.01,2.41c0.34,0.33,0.64,0.71,0.96,1.07c0.32,0.36,0.58,0.74,0.61,1.27c0.02,0.3,0.19,0.58,0.59,0.6
		c0.09,0,0.22,0.11,0.25,0.19c0.07,0.18,0.04,0.4,0.14,0.55c0.1,0.15,0.32,0.22,0.46,0.35c0.05,0.05,0.05,0.16,0.08,0.23
		c0.02,0.04,0.07,0.11,0.09,0.11c0.32-0.08,0.3,0.17,0.36,0.35c0.03,0.11,0.02,0.23,0.06,0.33c0.14,0.34,0.25,0.69,0.66,0.83
		c0.11,0.04,0.2,0.19,0.27,0.3c0.07,0.11,0.1,0.23,0.15,0.35c0.01,0,0.02,0,0.03,0l0.01,0c0.02-0.01,0.05-0.03,0.07-0.05l0,0
		c-0.01,0.02-0.02,0.04-0.03,0.05c-0.01,0-0.02,0-0.03,0c-0.01,0-0.02,0.01-0.03,0.02c0.31,0.39,0.62,0.77,0.92,1.16
		c0.2,0.27,0.59,0.35,0.71,0.7c0.01,0.02,0.11-0.01,0.16,0c0.05,0.01,0.13,0.02,0.15,0.06c0.12,0.29,0.23,0.57,0.33,0.87
		c0.01,0.04-0.02,0.11-0.06,0.14c-0.04,0.03-0.12,0.05-0.15,0.02c-0.25-0.13-0.49-0.27-0.73-0.42c-0.78-0.51-1.6-0.96-2.37-1.49
		c-0.74-0.52-1.53-0.96-2.25-1.51c-0.36-0.27-0.77-0.48-1.15-0.72c-1.22-0.77-2.41-1.59-3.58-2.43c-0.8-0.58-1.7-1.02-2.38-1.76
		c-0.05-0.06-0.14-0.11-0.22-0.11c-0.54-0.06-0.82-0.47-1.16-0.81c-0.1-0.1-0.19-0.21-0.29-0.31c-0.01-0.01-0.05,0-0.07,0.01
		c-0.01,0.01-0.03,0.04-0.03,0.06c0.03,0.08,0.07,0.16,0.09,0.24c0.04,0.23,0,0.3-0.22,0.39c-0.05,0.02-0.11,0.01-0.17,0.03
		c-0.09,0.03-0.13,0.1-0.07,0.18c0.05,0.07,0.1,0.15,0.17,0.18c0.23,0.11,0.24,0.29,0.18,0.5c-0.03,0.11-0.03,0.24,0.08,0.3
		c0.31,0.17,0.4,0.52,0.67,0.74c0.31,0.27,0.56,0.62,0.75,1.01c0.24,0.48,0.55,0.92,1.03,1.22c0.12,0.07,0.22,0.18,0.31,0.28
		c0.44,0.44,0.88,0.88,1.31,1.34c0.52,0.56,1.08,1.07,1.6,1.62c0.29,0.31,0.49,0.7,0.78,1c0.37,0.39,0.77,0.75,1.16,1.13
		c0.75,0.73,1.5,1.46,2.27,2.18c0.31,0.29,0.6,0.59,0.89,0.9c0.17,0.18,0.44,0.26,0.63,0.42c0.21,0.18,0.37,0.43,0.58,0.6
		c0.48,0.39,0.97,0.78,1.49,1.12c0.21,0.14,0.39,0.32,0.59,0.48c0.65,0.53,1.08,1.33,1.94,1.6c0.05,0.02,0.1,0.06,0.13,0.11
		c0.15,0.23,0.39,0.32,0.62,0.43c0.18,0.09,0.34,0.2,0.5,0.32c0.65,0.5,1.3,1,1.93,1.52c0.21,0.17,0.42,0.3,0.68,0.33
		c0.26,0.03,0.48,0.15,0.71,0.25c0.81,0.35,1.44,1,2.26,1.32c0.02,0.01,0.04,0.04,0.06,0.06c0.51,0.52,1.14,0.82,1.84,1.01
		c0.22,0.06,0.43,0.15,0.62,0.26c0.53,0.31,1.05,0.67,1.6,0.96c0.4,0.21,0.78,0.44,1.22,0.59c0.53,0.18,1.1,0.29,1.58,0.62
		c0.07,0.04,0.16,0.08,0.24,0.07c0.43-0.05,0.76,0.17,1.11,0.36c1.12,0.61,2.26,1.19,3.51,1.48c0.55,0.13,1.11,0.17,1.65,0.37
		c0.42,0.16,0.86,0.27,1.3,0.4c0.67,0.21,1.38,0.37,2.01,0.67c0.53,0.24,1.07,0.34,1.62,0.46c0.58,0.12,1.17,0.17,1.76,0.26
		c0.23,0.03,0.45,0.07,0.67,0.15c0.15,0.05,0.33,0.13,0.43,0.25c0.44,0.52,0.89,1.03,1.21,1.64c0.29,0.55,0.58,1.11,0.87,1.66
		c0.23,0.43,0.41,0.85,0.39,1.36c-0.02,0.36,0.14,0.72,0.17,1.09c0.05,0.77,0.23,1.51,0.45,2.24c0.23,0.75,0.53,1.49,0.8,2.24
		c0.11,0.32,0.25,0.64,0.31,0.97c0.12,0.65,0.43,1.22,0.64,1.84c0.2,0.62,0.51,1.2,0.73,1.82c0.39,1.08,1.08,1.99,1.64,2.97
		c0.42,0.32,0.63,0.8,0.93,1.21c0.28,0.39,0.57,0.77,0.87,1.15c0.69,0.86,1.41,1.7,2.09,2.57c0.4,0.51,0.8,1.03,1.3,1.46
		c0.58,0.5,1.07,1.08,1.74,1.48c0.45,0.27,0.81,0.7,1.21,1.06c0.67,0.6,1.34,1.2,2.13,1.64c0.37,0.21,0.71,0.46,1.05,0.71
		c1.04,0.74,2.1,1.43,3.25,1.97c0.44,0.2,0.86,0.42,1.29,0.63c0.81,0.4,1.6,0.84,2.43,1.2c0.8,0.35,1.57,0.78,2.42,1.02
		c0.35,0.1,0.66,0.31,1.01,0.44c0.24,0.09,0.46,0.21,0.68,0.33c0.21,0.11,0.5,0.08,0.74,0.14c0.22,0.06,0.42,0.17,0.63,0.26
		c0.13,0.06,0.25,0.14,0.38,0.18c1,0.33,1.99,0.67,2.99,0.98c0.51,0.16,1.03,0.32,1.51,0.57c0.26,0.13,0.52,0.21,0.81,0.22
		c0.46,0,0.88,0.12,1.31,0.29c0.39,0.15,0.84,0.15,1.24,0.28c1.03,0.34,2.11,0.44,3.17,0.57c1.88,0.23,3.77,0.35,5.67,0.37
		c0.96,0.01,1.93,0.03,2.88-0.07c0.96-0.1,1.92-0.14,2.88-0.23c1.32-0.13,2.66-0.15,3.97-0.39c1.62-0.3,3.23-0.62,4.82-1.06
		c1.15-0.32,2.28-0.68,3.44-0.97c2.18-0.55,4.29-1.31,6.37-2.14c1-0.4,1.96-0.89,2.97-1.27c0.34-0.13,0.68-0.28,1.02-0.43
		c1.32-0.6,2.62-1.22,3.9-1.89c1.08-0.57,2.11-1.22,3.16-1.83c0.47-0.27,0.93-0.54,1.44-0.72c0.75-0.26,1.5-0.53,2.25-0.79
		c0.16-0.06,0.33-0.1,0.49-0.13c0.3-0.05,0.58,0.01,0.76,0.26c0.15,0.2,0.34,0.29,0.56,0.36c0.74,0.27,1.44,0.63,2.13,1.01
		c0.39,0.22,0.8,0.41,1.22,0.6c0.62,0.28,1.25,0.53,1.87,0.8c0.36,0.16,0.75,0.29,1.07,0.5c0.61,0.39,1.26,0.62,1.98,0.67
		c0.14,0.01,0.27,0.07,0.41,0.11c0.46,0.13,0.92,0.29,1.39,0.39c0.52,0.12,1.05,0.22,1.58,0.3c0.49,0.07,0.99,0.1,1.48,0.22
		c0.46,0.11,0.95,0.06,1.43,0.08c0.56-0.24,1.1-0.16,1.64,0.08c0.08,0.03,0.17,0.03,0.25,0.07c0.38,0.18,0.76,0.14,1.16,0.08
		c0.98-0.14,1.96-0.27,2.95-0.2c0.08,0.01,0.18,0.01,0.25-0.03c0.36-0.19,0.73-0.09,1.08-0.04c1.11,0.16,2.2-0.01,3.29-0.16
		c0.84-0.11,1.66-0.33,2.51-0.38c0.93-0.06,1.86-0.17,2.74-0.51c0.45-0.17,0.9-0.35,1.36-0.49c0.53-0.16,1.07-0.32,1.64-0.3
		c0.19,0.01,0.4-0.04,0.58-0.11c0.38-0.14,0.77-0.16,1.16-0.2c0.56-0.06,1.12-0.14,1.68-0.25c0.78-0.16,1.55-0.35,2.32-0.53
		c0.55-0.13,1.1-0.26,1.65-0.4c0.22-0.06,0.47-0.1,0.32-0.44c-0.01-0.03,0.09-0.15,0.15-0.17c0.68-0.19,1.32-0.49,2.01-0.67
		c0.71-0.18,1.39-0.46,2.07-0.74c0.79-0.32,1.54-0.72,2.33-1.04c0.6-0.25,1.24-0.4,1.81-0.72c0.07-0.04,0.16-0.06,0.24-0.07
		c0.9-0.13,1.65-0.59,2.4-1.06c0.87-0.54,1.76-1.03,2.66-1.5c0.91-0.48,1.9-0.71,2.86-1.04c0.81-0.28,1.53-0.72,2.27-1.13
		c0.17-0.1,0.33-0.22,0.48-0.35c0.08-0.07,0.13-0.18,0.18-0.28c0.02-0.04,0-0.12-0.02-0.16c-0.03-0.03-0.1-0.07-0.14-0.06
		c-0.33,0.09-0.64,0.22-0.97,0.29c-0.75,0.16-1.5,0.3-2.25,0.44c-0.89,0.17-1.79,0.29-2.65,0.57c-0.24,0.08-0.5,0.11-0.75,0.16
		c-1.38,0.32-2.8,0.43-4.17,0.8c-0.82,0.22-1.65,0.38-2.48,0.59c-1.1,0.28-2.21,0.46-3.34,0.57c-0.05,0.01-0.1-0.03-0.15-0.05
		c0.02-0.04,0.03-0.1,0.07-0.11c0.18-0.09,0.35-0.19,0.54-0.25c1.04-0.3,1.97-0.86,2.99-1.21c0.16-0.05,0.3-0.15,0.45-0.23
		c0.25-0.13,0.5-0.28,0.75-0.4c0.94-0.45,1.88-0.9,2.78-1.43c1.22-0.71,2.49-1.34,3.68-2.12c0.5-0.32,0.98-0.67,1.51-0.94
		c0.8-0.42,1.59-0.85,2.36-1.33c0.44-0.28,0.94-0.4,1.44-0.45c0.33-0.04,0.58-0.13,0.84-0.33c0.61-0.46,1.26-0.85,1.69-1.52
		c0.15-0.23,0.38-0.41,0.57-0.62c0.14-0.16,0.31-0.24,0.52-0.2c0.17,0.03,0.34,0.02,0.51,0.04c0.31,0.03,0.62,0.09,0.93,0.09
		c0.49,0.01,0.96-0.06,1.4-0.29c0.18-0.09,0.21-0.23,0.06-0.31c-0.22-0.13-0.44-0.27-0.67-0.36c-0.53-0.19-1.07-0.37-1.56-0.67
		c-0.14-0.09-0.31-0.13-0.48-0.18c-1.03-0.31-2.01-0.74-2.92-1.3c-0.48-0.3-0.95-0.62-1.42-0.93c-0.28-0.18-0.47-0.41-0.5-0.75
		c-0.03-0.28-0.18-0.48-0.37-0.65c-0.34-0.31-0.7-0.55-1.18-0.58c-0.35-0.02-0.64-0.17-0.88-0.45c-0.24-0.28-0.54-0.5-0.81-0.75
		c-0.21-0.19-0.42-0.38-0.63-0.57c-0.1-0.09-0.08-0.19,0.06-0.25c0.21-0.09,0.43-0.15,0.63-0.25c0.33-0.16,0.68-0.29,0.98-0.5
		c0.4-0.29,0.83-0.46,1.31-0.57l-0.03,0.02l0.01,0l0.02-0.01l0,0c0.07-0.04,0.14-0.07,0.21-0.11l0.2-0.1l0,0l0.21-0.11l0.01-0.01
		c0.07-0.06,0.12-0.06,0.15,0.01c0.01,0.01,0.01,0.02,0.02,0.04c0.17,0.08,0.33,0.03,0.49-0.03c0.54-0.19,1.07-0.37,1.6-0.56
		c0.17-0.06,0.34-0.11,0.48,0.04c0.5,0.52,1.16,0.79,1.75,1.18c0.64,0.42,1.33,0.74,2.13,0.77c0.22,0.01,0.44,0.1,0.64,0.21
		c0.35,0.18,0.68,0.4,1.03,0.59c0.06,0.03,0.16,0.01,0.24,0.01c-0.01-0.08,0-0.18-0.03-0.24c-0.1-0.17-0.21-0.35-0.35-0.47
		c-0.39-0.32-0.78-0.65-1.28-0.82c-0.44-0.14-0.81-0.4-1.15-0.7c-0.32-0.28-0.64-0.56-0.95-0.85c-0.18-0.17-0.43-0.28-0.46-0.57
		c0.2-0.1,0.4-0.2,0.61-0.3c0.02-0.01,0.06-0.03,0.07-0.05c0.03-0.07,0.08-0.15,0.08-0.22c-0.01-0.08-0.06-0.16-0.11-0.23
		c-0.61-0.95-1.25-1.89-1.81-2.88c-0.07-0.12-0.17-0.22-0.26-0.34c-0.25-0.34-0.5-0.69-0.74-1.04c-0.2-0.28-0.41-0.53-0.46-0.89
		c-0.03-0.19-0.13-0.4-0.27-0.52c-0.46-0.39-0.61-0.94-0.81-1.47c-0.31-0.79-0.6-1.6-0.93-2.37c-0.71-1.64-1.31-3.33-1.88-5.02
		c-0.32-0.97-0.52-1.97-0.93-2.91c-0.1-0.24-0.17-0.49-0.27-0.72c-0.25-0.55-0.27-1.15-0.44-1.72c-0.25-0.84-0.54-1.68-0.73-2.53
		c-0.22-0.94-0.53-1.85-0.8-2.77c-0.48-1.66-0.96-3.33-1.42-4.99c-0.23-0.82-0.43-1.65-0.63-2.47c-0.14-0.55-0.22-1.12-0.38-1.66
		c-0.3-1.01-0.66-1.99-0.97-3c-0.17-0.56-0.44-1.12-0.3-1.73c-0.11-0.41-0.2-0.83-0.33-1.23c-0.23-0.71-0.37-1.42-0.48-2.15
		c-0.02-0.17-0.07-0.33-0.11-0.49c-0.36-1.22-0.71-2.45-0.9-3.71c-0.11-0.73-0.27-1.45-0.42-2.17c-0.02-0.12-0.04-0.21,0.05-0.3
		c0.39-0.37,0.71-0.81,1.21-1.05c0.19-0.09,0.35-0.28,0.5-0.45c0.84-0.92,1.66-1.86,2.5-2.78c0.46-0.5,0.94-0.99,1.4-1.48
		c0.52-0.56,1.04-1.13,1.54-1.7c0.73-0.83,1.47-1.65,2.18-2.5c0.32-0.38,0.73-0.72,0.85-1.25c0.02-0.1,0.13-0.18,0.2-0.27
		c0.49-0.67,1.1-1.22,1.68-1.79c0.06-0.06,0.12-0.12,0.19-0.16c0.56-0.35,0.84-0.65,1.16-1.27l-0.03,0.01l0,0
		c0-0.02,0-0.03,0.01-0.05c0.01,0.01,0.01,0.02,0.02,0.03c0.23-0.05,0.33-0.25,0.45-0.41c1.06-1.4,2.11-2.81,3.15-4.22
		c0.12-0.16,0.21-0.33,0.3-0.51c0.11-0.19,0.22-0.39,0.32-0.59c0.28-0.57,0.71-1.03,1.09-1.51c0.52-0.66,0.99-1.37,1.66-1.91
		c0.32-0.26,0.53-0.58,0.68-0.96c0.1-0.23,0.2-0.49,0.37-0.66c0.41-0.38,0.69-0.89,1.17-1.21c0.27-0.18,0.4-0.45,0.48-0.78
		c0.08-0.36,0.22-0.71,0.33-1.06c0.14-0.41,0.29-0.79,0.65-1.07c0.27-0.22,0.4-0.52,0.5-0.87c0.13-0.46,0.34-0.9,0.53-1.34
		c0.17-0.42,0.44-0.79,0.61-1.2c0.3-0.76,0.62-1.52,0.68-2.36c0.02-0.33,0.01-0.68,0.17-0.99c0.48-0.98,0.69-2.04,0.81-3.11
		c0.07-0.71,0.2-1.41,0.38-2.08c0.18-0.69,0.36-1.37,0.3-2.08c0-0.03,0-0.06,0.01-0.08c0.03-0.12,0.13-0.21,0.24-0.2
		c0.2,0.01,0.39,0.07,0.59,0.1c0.15,0.02,0.27-0.1,0.29-0.24C218.04,48.57,217.92,48.28,217.74,48.02z M6.61,92.8L6.61,92.8
		c-0.01,0-0.02,0.01-0.02,0.02c-0.01,0.01-0.01,0.01-0.02,0.02l0,0l-0.05-0.01c-0.04,0.02-0.08,0.04-0.12,0.06
		c-0.17,0.08-0.34,0.09-0.51-0.08c-0.02-0.02-0.03-0.04-0.04-0.06c-0.02-0.02-0.03-0.05-0.05-0.07l0,0
		c0.04-0.01,0.09-0.04,0.13-0.03l0,0c0.19,0.06,0.39,0.12,0.58,0.19c0.01-0.01,0.02-0.01,0.03-0.02C6.57,92.8,6.58,92.8,6.61,92.8
		c0.01-0.02,0.03-0.04,0.05-0.07l0,0c0.01,0.02,0.02,0.04,0.04,0.05C6.66,92.79,6.64,92.8,6.61,92.8z M58.19,33.82
		c-0.01-0.11-0.04-0.23-0.03-0.33c0.1-0.94,0.08-1.89,0.04-2.83c-0.01-0.38-0.03-0.77-0.04-1.15c-0.01-0.25,0.02-0.51,0.03-0.76
		c0.09-1.18,0.3-2.36,0.43-3.54c0.11-0.98,0.21-1.97,0.33-2.95c0.03-0.23,0.06-0.46,0.09-0.7c0.1-0.75,0.19-1.5,0.3-2.25
		c0.19-1.31,0.4-2.62,0.43-3.96c0.01-0.4,0.05-0.79,0.1-1.19c0.06-0.51,0.12-1.01,0.19-1.51c0.13-1.04,0.27-2.07,0.45-3.1
		c0.02-0.12,0.06-0.24,0.09-0.36c0.06-0.23,0.12-0.46,0.2-0.69c0.04-0.11,0.07-0.23,0.11-0.34c0.22-0.76,0.44-1.53,0.67-2.29
		c0.02-0.05,0.03-0.1,0.05-0.16c0.08-0.25,0.17-0.49,0.24-0.73c0.14-0.43,0.42-0.74,0.75-1.01c0.02-0.02,0.04-0.04,0.06-0.06l0.01,0
		c0.25-0.19,0.52-0.25,0.84-0.26c0.04,0,0.06-0.01,0.1-0.01c0.64,0.02,1.24,0.2,1.81,0.43c0.74,0.28,1.49,0.56,2.23,0.86
		c0.57,0.23,1.14,0.46,1.7,0.74c0.25,0.13,0.49,0.27,0.73,0.44c0.14,0.09,0.28,0.19,0.4,0.3c0.29,0.26,0.65,0.45,1.01,0.62
		c0.41,0.2,0.81,0.38,1.11,0.75c0.03,0.03,0.07,0.05,0.11,0.07c0.07,0.06,0.15,0.11,0.24,0.15c0.08,0.04,0.16,0.07,0.24,0.1
		c0.23,0.1,0.48,0.18,0.61,0.43c0.04,0.07,0.11,0.15,0.19,0.17c0.21,0.06,0.36,0.17,0.5,0.31c0.05,0.05,0.1,0.11,0.14,0.16
		c0.08,0.1,0.16,0.19,0.25,0.28c0.18,0.18,0.34,0.38,0.53,0.56c0.22,0.22,0.46,0.42,0.61,0.71c0.03,0.07,0.09,0.11,0.14,0.16
		c0.04,0.04,0.08,0.07,0.12,0.1c0.06,0.04,0.12,0.08,0.19,0.1c0.04,0.01,0.07,0.05,0.11,0.07c0.12,0.05,0.24,0.11,0.31,0.2
		c0.17,0.23,0.38,0.42,0.59,0.59c0.03,0.02,0.05,0.05,0.08,0.07c0.22,0.17,0.45,0.33,0.67,0.5c0.24,0.19,0.49,0.35,0.71,0.56
		c0.09,0.08,0.19,0.15,0.26,0.26c0.05,0.08,0.19,0.11,0.28,0.18c0.05,0.04,0.08,0.08,0.13,0.12c0.06,0.05,0.13,0.09,0.17,0.16
		c0.24,0.47,0.57,0.87,0.93,1.23c0.23,0.24,0.46,0.46,0.74,0.66c0.42,0.3,0.78,0.66,1.07,1.09c0.29,0.43,0.61,0.85,0.94,1.25
		c0.26,0.32,0.53,0.63,0.83,0.92c0.44,0.43,0.76,0.97,1.09,1.5c0.06,0.09,0.09,0.21,0.17,0.28c0.5,0.47,0.89,1.02,1.23,1.61
		c0.09,0.14,0.18,0.28,0.26,0.43c0.05,0.09,0.13,0.15,0.19,0.23c0.1,0.12,0.18,0.24,0.29,0.35c0.27,0.28,0.54,0.57,0.72,0.93
		c0.13,0.26,0.28,0.5,0.42,0.76c0.14,0.24,0.27,0.49,0.4,0.73c0.01,0.01,0.01,0.03,0.02,0.04c0,0.01,0.01,0.03,0.02,0.03
		c0.02,0.03,0.04,0.05,0.06,0.07c0.01,0.02,0.02,0.05,0.04,0.06c0.13,0.06,0.24,0.14,0.33,0.24c0.21,0.22,0.36,0.49,0.58,0.7
		c0.07,0.07,0.14,0.13,0.23,0.18c0.05,0.03,0.09,0.08,0.13,0.11c0.06,0.05,0.13,0.09,0.18,0.16c0.16,0.2,0.32,0.4,0.49,0.58
		c0.05,0.05,0.11,0.09,0.15,0.14c0.13,0.13,0.26,0.26,0.41,0.37c0.09,0.07,0.08,0.21,0.01,0.3c-0.01,0.02-0.01,0.05-0.03,0.06
		c-0.13,0.09-0.27,0.19-0.42,0.24c-0.01,0-0.01,0.01-0.02,0.01c-0.17,0.06-0.34,0.12-0.51,0.18c-0.44,0.16-0.89,0.31-1.33,0.47
		c-0.42,0.15-0.85,0.3-1.28,0.43c-0.54,0.15-1.04,0.45-1.55,0.68c-0.06,0.03-0.12,0.04-0.18,0.07c-0.68,0.29-1.38,0.51-2.08,0.71
		c-0.13,0.04-0.25,0.08-0.38,0.11c-0.06,0.02-0.17-0.03-0.21-0.08l0,0c-0.05-0.08-0.09-0.16-0.14-0.25
		c-0.05-0.09-0.1-0.18-0.15-0.27c-0.16-0.28-0.3-0.58-0.52-0.83c-0.04-0.05-0.07-0.11-0.12-0.15c-0.12-0.09-0.17-0.29-0.2-0.45
		c-0.07-0.36-0.21-0.69-0.4-1c-0.05-0.08-0.08-0.16-0.14-0.24c-0.13-0.18-0.24-0.37-0.36-0.56c-0.13-0.19-0.26-0.38-0.38-0.58
		c-0.1-0.17-0.25-0.29-0.37-0.44c-0.13-0.16-0.23-0.33-0.39-0.47c-0.1-0.09-0.18-0.2-0.26-0.31c-0.02-0.03-0.05-0.05-0.07-0.08
		c-0.12-0.2-0.24-0.39-0.35-0.59c-0.14-0.24-0.27-0.48-0.42-0.71c-0.12-0.19-0.27-0.37-0.4-0.55c-0.13-0.18-0.27-0.36-0.38-0.55
		c-0.27-0.48-0.63-0.87-0.97-1.28c-0.11-0.13-0.23-0.26-0.35-0.38c-0.14-0.15-0.27-0.32-0.39-0.48c-0.06-0.08-0.14-0.15-0.19-0.25
		c-0.01-0.02-0.03-0.03-0.04-0.05c-0.1-0.13-0.24-0.19-0.38-0.27c-0.09-0.05-0.17-0.11-0.22-0.21c-0.07-0.13-0.16-0.24-0.25-0.36
		c-0.06-0.09-0.11-0.19-0.18-0.27c-0.23-0.24-0.51-0.44-0.76-0.67c-0.35-0.32-0.69-0.66-1.08-0.95c-0.15-0.11-0.27-0.24-0.4-0.38
		c-0.01-0.01-0.02-0.02-0.03-0.02c-0.13-0.15-0.26-0.31-0.39-0.46c0,0,0,0,0,0c-0.22-0.25-0.43-0.48-0.73-0.67
		c0,0-0.01-0.01-0.01-0.01c-0.14-0.09-0.26-0.2-0.38-0.31c-0.22-0.19-0.43-0.39-0.64-0.59c-0.03-0.02-0.06-0.05-0.09-0.08
		c-0.14-0.13-0.27-0.27-0.44-0.34c-0.22-0.1-0.42-0.24-0.61-0.37c-0.27-0.19-0.53-0.38-0.8-0.56c-0.28-0.19-0.55-0.39-0.85-0.55
		c-0.13-0.08-0.26-0.16-0.38-0.25c-0.13-0.09-0.27-0.17-0.4-0.27c-0.14-0.1-0.28-0.2-0.42-0.29c-0.14-0.09-0.28-0.18-0.43-0.27
		c-0.19-0.12-0.38-0.24-0.58-0.36c-0.05-0.03-0.11-0.04-0.17-0.04c-0.02,0-0.04-0.02-0.06-0.02c-0.08,0-0.16,0.04-0.23,0.08
		c0,0,0,0.03,0.01,0.07c0.01,0.03,0.02,0.07,0.04,0.08c0.22,0.25,0.44,0.51,0.67,0.73c0.05,0.04,0.09,0.1,0.14,0.14
		c0.31,0.26,0.59,0.53,0.88,0.81c0.48,0.47,0.95,0.97,1.34,1.52c0.07,0.09,0.14,0.17,0.23,0.25c0.31,0.3,0.56,0.63,0.85,0.95
		c0.93,1.03,1.75,2.14,2.41,3.38c0.05,0.09,0.1,0.17,0.15,0.26c0.16,0.28,0.33,0.56,0.49,0.85c0.07,0.13,0.15,0.25,0.22,0.38
		c0.04,0.07,0.08,0.14,0.09,0.22c0.02,0.08,0.05,0.16,0.09,0.23c0.14,0.29,0.39,0.55,0.35,0.9c-0.19-0.06-0.35-0.17-0.51-0.28
		c-0.08-0.05-0.17-0.09-0.25-0.16c-0.18-0.14-0.36-0.29-0.55-0.43c-0.07-0.05-0.14-0.09-0.21-0.14c-0.18-0.13-0.37-0.26-0.56-0.37
		c-0.35-0.21-0.69-0.44-1.03-0.68c-0.13-0.09-0.26-0.17-0.39-0.25c-0.53-0.35-1.07-0.7-1.62-1.03c-0.42-0.26-0.85-0.5-1.28-0.73
		c-0.56-0.29-1.16-0.46-1.77-0.62c-0.11-0.03-0.21-0.06-0.32-0.09c0,0-0.01,0-0.01,0c-0.09-0.01-0.21,0.1-0.21,0.21
		c0.01,0.14,0.03,0.28,0.04,0.42c0,0.07,0.02,0.15,0.02,0.22c0.04,0.32,0.1,0.63-0.12,0.93c0.04,0.34,0,0.68-0.03,1.02
		c-0.02,0.22-0.05,0.44-0.04,0.66c0.04,0.7,0.01,1.39-0.01,2.09c-0.01,0.26,0.02,0.53,0,0.79c0,0.01,0,0.03,0,0.04
		c-0.01,0.05-0.02,0.09-0.02,0.13c0.08,0.62,0.06,1.25,0.06,1.88c0,0.28-0.01,0.55,0.03,0.83c0,0.02,0,0.03,0,0.05
		c0,0.04,0.01,0.09-0.01,0.12c-0.01,0.02-0.03,0.03-0.05,0.04c-0.03,0.02-0.06,0.04-0.08,0.03c-0.15-0.08-0.29-0.17-0.43-0.26
		c-0.02-0.01-0.04-0.01-0.06,0c0,0-0.01,0-0.02,0c-0.03,0.03-0.07,0.09-0.06,0.12c0.03,0.07,0.07,0.13,0.1,0.19
		c0.09,0.19,0.17,0.39,0.29,0.56c0.28,0.37,0.39,0.77,0.43,1.2c0.02,0.19,0.03,0.38,0.03,0.58c0,0.21,0.02,0.42,0.03,0.64
		c0.01,0.55,0.02,1.1,0.07,1.65c0.04,0.38,0.06,0.76,0.08,1.15c0.01,0.15,0.02,0.31,0.03,0.46c0.05,0.74,0.18,1.46,0.33,2.18
		c0.09,0.44,0.13,0.89,0.21,1.34c0.11,0.61,0.18,1.22,0.27,1.82c0.05,0.34,0.1,0.69,0.15,1.03c0,0.01,0,0.02,0,0.02
		c0.02,0.14,0,0.26-0.12,0.36c0,0,0,0,0,0c-0.14,0.13-0.32,0.24-0.4,0.4c0,0-0.01,0.01-0.01,0.01c-0.12,0.26-0.28,0.44-0.48,0.59
		c-0.2,0.14-0.43,0.25-0.67,0.34c-0.01,0-0.02,0.02-0.03,0.02c-0.14,0.06-0.28,0.15-0.39,0.25c-0.24,0.2-0.46,0.42-0.69,0.63
		c-0.19,0.17-0.45,0.31-0.54,0.53c-0.09,0.21,0,0.49,0,0.75c0,0.03-0.01,0.04-0.02,0.07c-0.01,0.14-0.08,0.25-0.21,0.36
		c-0.92,0.76-1.82,1.53-2.72,2.3c-0.06,0.06-0.12,0.11-0.18,0.18c-0.04,0.04-0.08,0.08-0.12,0.12c-0.09,0.08-0.25,0.06-0.29-0.04
		c-0.03-0.1-0.07-0.2-0.11-0.3c0-0.01-0.01-0.02-0.01-0.02c0,0,0-0.01,0-0.01c-0.03-0.1-0.06-0.21-0.07-0.31
		c-0.03-0.38-0.08-0.76-0.12-1.13c-0.05-0.46-0.08-0.92-0.13-1.38c-0.03-0.37-0.08-0.74-0.08-1.12c0-0.33-0.04-0.67-0.08-1
		c-0.01-0.1-0.02-0.19-0.03-0.28c-0.05-0.36-0.11-0.72-0.18-1.07c-0.07-0.38-0.11-0.77-0.14-1.15c-0.02-0.35-0.04-0.7-0.06-1.04
		c-0.05-1.08-0.03-2.15-0.19-3.22c-0.07-0.44-0.13-0.9-0.01-1.35C58.25,34.11,58.2,33.96,58.19,33.82z M73.75,23.47
		c0-0.01,0-0.02,0-0.03c0.01,0,0.02,0.01,0.03,0.02c0.01,0.01,0.01,0.02,0.02,0.04c0.02,0.01,0.04,0.02,0.05,0.03
		c0.01,0.01,0.03,0.01,0.04,0.02c0.02,0.01,0.03,0.03,0.04,0.04c0.01,0.02,0.03,0.03,0.04,0.04c-0.04-0.01-0.1-0.01-0.13-0.03
		c-0.01-0.01-0.02-0.04-0.02-0.06c0-0.01-0.01-0.02-0.01-0.03l0,0C73.78,23.49,73.77,23.48,73.75,23.47z M52.48,64.4
		c0.02-0.01,0.03-0.03,0.05-0.04c0.19-0.16,0.37-0.1,0.55,0c0.01,0,0.03-0.01,0.04-0.01c0.01,0,0.02-0.01,0.02,0l0,0
		c0.02-0.05,0.03-0.11,0.05-0.17c0,0,0,0,0-0.01c0.02-0.07,0.04-0.13,0.08-0.18c0.04-0.05,0.09-0.08,0.13-0.13
		c0.13-0.15,0.25-0.31,0.41-0.41c0.26-0.17,0.47-0.39,0.66-0.62c0.11-0.13,0.22-0.27,0.31-0.42c0.04-0.07,0.11-0.13,0.17-0.18
		c0.02-0.02,0.04-0.05,0.06-0.07c0.5-0.45,1.03-0.89,1.51-1.37c0.14-0.14,0.28,0.07,0.4-0.06c0.01-0.01,0.02-0.01,0.02-0.02
		c0,0,0.01,0,0.01-0.01c0.09-0.14,0.23-0.24,0.33-0.37c0.06-0.07,0.11-0.14,0.16-0.21c0.05-0.07,0.09-0.14,0.15-0.19
		c0.12-0.12,0.25-0.23,0.37-0.34c0.12-0.12,0.24-0.25,0.38-0.34c0.31-0.21,0.59-0.45,0.83-0.73c0.05-0.06,0.12-0.11,0.17-0.18
		c0.07-0.1,0.16-0.2,0.25-0.27c0.1-0.08,0.21-0.13,0.35-0.16c0.01,0,0.01-0.01,0.01-0.01c0.09-0.02,0.18-0.1,0.27-0.16
		c0.14-0.09,0.28-0.2,0.43-0.28c0.91-0.45,1.83-0.89,2.75-1.33c0.03-0.01,0.06-0.03,0.08-0.04c0.04-0.02,0.09-0.04,0.13-0.06
		c0.47-0.22,0.95-0.42,1.42-0.64c0.23-0.1,0.46-0.2,0.68-0.34c0.12-0.08,0.25-0.16,0.38-0.18c0.32-0.04,0.59-0.12,0.81-0.39
		c0.11-0.14,0.34-0.19,0.53-0.24c0.77-0.21,1.51-0.49,2.22-0.84c0.99-0.5,2.06-0.81,3.11-1.13c0.11-0.03,0.23-0.03,0.33-0.08
		c0.9-0.43,1.86-0.66,2.81-0.95c0.49-0.15,0.98-0.28,1.47-0.41c0.04-0.01,0.08-0.02,0.12-0.03c0.04-0.01,0.09-0.01,0.12-0.03
		c0.69-0.27,1.41-0.46,2.13-0.63c0.06-0.01,0.12-0.03,0.18-0.05c0.74-0.18,1.48-0.33,2.21-0.53c0.15-0.04,0.3-0.05,0.46-0.08
		c0.04,0,0.09-0.01,0.13-0.02c0.75-0.13,1.51-0.23,2.23-0.52c0.09-0.04,0.19-0.06,0.28-0.09c0.34-0.11,0.69-0.18,1.03-0.26
		c0.12-0.03,0.24-0.06,0.36-0.06c0.12-0.01,0.25,0.02,0.38,0.09c0.04,0.02,0.09,0.01,0.13,0.01c0.08,0,0.16,0.01,0.26-0.01
		c0.06-0.01,0.13-0.03,0.18-0.04c0.5-0.09,1-0.14,1.52-0.14c0.32,0,0.64-0.06,0.96-0.11c0.13-0.02,0.26-0.05,0.38-0.07
		c0.33-0.05,0.66-0.03,0.99-0.03c0.15,0,0.3-0.03,0.45-0.01c0.49,0.05,1,0.09,1.5-0.08c0.33-0.11,0.73-0.09,1.09,0.06
		c0.24,0.1,0.49,0.1,0.75,0.1c0.27-0.01,0.54,0,0.81,0.01c0.27,0,0.54,0,0.81,0.01c0.54,0.01,1.07,0.12,1.6,0.2
		c1.41,0.22,2.73,0.74,4.08,1.17c0.72,0.23,1.41,0.54,2.08,0.92c0.2,0.11,0.41,0.21,0.61,0.3c0.15,0.07,0.3,0.15,0.45,0.22
		c0.56,0.26,1.15,0.47,1.7,0.76c0.57,0.3,1.12,0.65,1.66,1.01c0.11,0.08,0.23,0.15,0.34,0.23c0.01,0.01,0.03,0.02,0.05,0.03
		c0,0,0.01,0.01,0.02,0.01c0.12,0.08,0.26,0.15,0.41,0.18c0.34,0.09,0.61,0.28,0.88,0.5c0.59,0.48,1.21,0.93,1.73,1.49
		c0.65,0.71,1.32,1.4,1.98,2.09c0.11,0.12,0.24,0.22,0.37,0.32c0.05,0.04,0.1,0.08,0.14,0.13c0.05,0.05,0.1,0.09,0.15,0.14
		c0.12,0.11,0.24,0.22,0.31,0.36c0.18,0.34,0.4,0.6,0.72,0.82c0.11,0.08,0.19,0.19,0.29,0.29c0.08,0.09,0.19,0.15,0.25,0.25
		c0.36,0.58,0.7,1.16,1.02,1.77c0.14,0.27,0.27,0.54,0.43,0.79c0,0,0,0.01,0.01,0.01l0,0c0.15,0.23,0.25,0.49,0.33,0.75
		c0.04,0.11,0.08,0.23,0.1,0.34c0.06,0.37,0.4,0.54,0.48,0.88c0.03,0.12,0.05,0.24,0.08,0.36c0.05,0.21,0.11,0.41,0.26,0.59
		c0.31,0.34,0.5,0.76,0.69,1.18c0.01,0.03,0.02,0.05,0.03,0.07c0.1,0.23,0.22,0.47,0.27,0.71c0.04,0.19,0.12,0.37,0.22,0.52
		c0.1,0.15,0.23,0.28,0.38,0.38c0.2,0.14,0.3,0.29,0.37,0.49c0,0.01,0.01,0.02,0.02,0.03c0.18,0.51,0.36,1.02,0.54,1.52
		c0.06,0.16,0.13,0.31,0.22,0.46c0.03,0.04,0.17,0.06,0.21,0.03c0.16-0.11,0.31-0.24,0.45-0.38c0.7-0.66,1.45-1.25,2.23-1.81
		c0.12-0.08,0.24-0.18,0.36-0.27c0.24-0.16,0.49-0.27,0.77-0.35c1.03-0.3,2.06-0.63,3.09-0.94c0.43-0.13,0.87-0.26,1.3-0.39
		c0.08-0.02,0.17-0.03,0.25-0.06c1.18-0.57,2.47-0.82,3.68-1.3c0.24-0.09,0.49-0.17,0.74-0.26c0.45-0.15,0.91-0.26,1.38-0.33
		c0.14-0.02,0.28-0.07,0.42-0.07c0.93-0.05,1.87-0.09,2.8-0.12c1.41-0.04,2.83-0.02,4.24,0.04c0.07,0,0.13,0.02,0.2,0.02
		c0.26,0.02,0.52,0.05,0.78,0.08c0.07,0,0.13,0.02,0.2,0.02c0.18,0.01,0.36,0.04,0.54,0.06c0.44,0.06,0.87,0.14,1.29,0.27
		c0.35,0.11,0.69,0.25,1.07,0.23c0.04,0,0.08,0.02,0.12,0.03c0.04,0.01,0.09,0.01,0.12,0.03c0.28,0.22,0.59,0.33,0.95,0.31
		c0.05,0,0.1,0.03,0.15,0.06c0.02,0.02,0.05,0.04,0.07,0.05c0.07,0.04,0.14,0.08,0.21,0.12c0.08,0.04,0.16,0.09,0.24,0.1
		c0.31,0.07,0.6,0.18,0.88,0.31c0.28,0.13,0.56,0.26,0.85,0.38c0.29,0.12,0.55,0.25,0.8,0.43c0.07,0.05,0.15,0.09,0.22,0.15
		c0.1,0.09,0.23,0.16,0.36,0.22c0.13,0.05,0.27,0.1,0.4,0.14c0.38,0.12,0.76,0.22,0.99,0.59c0.34,0.19,0.64,0.45,1,0.6
		c0.1,0.04,0.21,0.08,0.33,0.09c0.24,0.04,0.39,0.17,0.56,0.34c0.36,0.38,0.71,0.79,1.26,0.96c0.16,0.05,0.31,0.12,0.46,0.2
		c0.15,0.08,0.3,0.17,0.44,0.25c0.2,0.11,0.42,0.21,0.56,0.38c0.07,0.09,0.16,0.16,0.24,0.25c0.28,0.29,0.57,0.55,0.87,0.8
		c0.09,0.07,0.17,0.14,0.25,0.21c0.37,0.31,0.76,0.6,1.14,0.9c0.35,0.28,0.69,0.57,1.05,0.83c0.05,0.04,0.12,0.06,0.19,0.09
		c0.07,0.03,0.12,0.08,0.19,0.09c0.21,0.05,0.32,0.17,0.44,0.36c0.14,0.24,0.35,0.44,0.55,0.63c0.16,0.16,0.37,0.26,0.55,0.39
		c0.04,0.03,0.09,0.06,0.14,0.09c0.1,0.06,0.2,0.13,0.27,0.21c0.43,0.57,1.05,0.94,1.5,1.49c0.22,0.26,0.43,0.53,0.65,0.79
		c0.22,0.26,0.44,0.52,0.65,0.79c1.63,2.04,3.26,4.07,4.73,6.24c0.12,0.18,0.29,0.34,0.42,0.51c0.14,0.18,0.27,0.37,0.44,0.53
		c0.13,0.12,0.25,0.26,0.36,0.41c0.02,0.03,0.05,0.06,0.07,0.09c0.11,0.17,0.21,0.35,0.28,0.54c0.16,0.43,0.35,0.84,0.57,1.24
		c0.22,0.4,0.45,0.79,0.67,1.18c0.55,0.96,1.14,1.89,1.7,2.85c0.03,0.05,0.06,0.1,0.09,0.15c0.32,0.55,0.64,1.11,0.95,1.67
		c0.31,0.56,0.63,1.11,0.95,1.67c0.12,0.21,0.25,0.41,0.38,0.61c0.13,0.2,0.26,0.4,0.38,0.61l0,0.01c0.32,0.55,0.6,1.13,0.83,1.72
		c0.11,0.28,0.23,0.55,0.31,0.83c0.06,0.22,0.13,0.44,0.23,0.64c0.31,0.58,0.45,1.22,0.61,1.85c0.14,0.52,0.23,1.05,0.48,1.54
		c0.05,0.1,0.06,0.22,0.06,0.34c0,0.05,0,0.1,0,0.15c0,0.03-0.09,0.1-0.11,0.09c-0.17-0.11-0.33-0.22-0.49-0.34
		c-0.89-0.65-1.78-1.31-2.66-1.97c-0.2-0.15-0.38-0.34-0.57-0.51c-0.67-0.62-1.3-1.27-2-1.84c-0.28-0.23-0.57-0.44-0.86-0.65
		c-0.28-0.2-0.55-0.41-0.83-0.6c-0.23-0.16-0.47-0.33-0.7-0.49c-0.05-0.04-0.1-0.07-0.15-0.11c-0.07-0.04-0.14-0.08-0.2-0.13
		c-0.26-0.22-0.53-0.41-0.8-0.61c-0.75-0.57-1.52-1.11-2.34-1.57c-0.52-0.29-1-0.63-1.5-0.94c-0.01,0-0.02-0.01-0.02-0.01
		c-0.44-0.27-0.89-0.53-1.37-0.73c-0.01,0-0.01-0.01-0.02-0.01c-0.14-0.06-0.28-0.14-0.41-0.22c-0.14-0.08-0.27-0.15-0.41-0.22
		c-0.27-0.13-0.53-0.27-0.8-0.41c-0.69-0.35-1.39-0.7-2.14-0.92c-0.21-0.13-0.42-0.23-0.65-0.32c-0.47-0.19-0.96-0.33-1.44-0.47
		c-0.21-0.06-0.41-0.12-0.61-0.19c-0.91-0.32-1.84-0.58-2.77-0.83c-0.26-0.07-0.53-0.12-0.79-0.18c-0.32-0.07-0.63-0.14-0.95-0.21
		c-0.02,0-0.03,0-0.04-0.01c-0.01,0-0.03-0.01-0.04-0.01c-0.86,0.09-1.67-0.23-2.51-0.33c-0.55-0.07-1.09-0.11-1.64-0.14
		c-0.05,0-0.1,0-0.14,0c-0.51-0.02-1.01-0.04-1.52-0.05c-0.42-0.01-0.85,0.04-1.27,0.04c-0.18,0-0.36-0.02-0.55-0.02
		c-0.33-0.01-0.65-0.02-0.98-0.04c-0.48-0.03-0.95,0.01-1.42,0.06c-0.03,0-0.07,0-0.1,0c-0.51,0.06-1.01,0.14-1.51,0.2
		c-0.59,0.07-1.18,0.18-1.77,0.29c-0.19,0.04-0.39,0.06-0.58,0.1c-0.35,0.07-0.68,0.16-1.03,0.24c-0.34,0.08-0.69,0.14-1.03,0.24
		c-0.75,0.21-1.5,0.43-2.24,0.68c-0.74,0.25-1.46,0.53-2.18,0.86c-0.33,0.15-0.69,0.24-0.96,0.49c-0.06,0.05-0.15,0.08-0.22,0.11
		l-0.01,0c-1.51,0.58-2.9,1.42-4.33,2.17c-0.66,0.34-1.26,0.81-1.89,1.21c-0.04,0.02-0.07,0.05-0.11,0.07
		c-0.04,0.02-0.08,0.05-0.12,0.08c-0.42,0.26-0.83,0.55-1.16,0.91c-0.75,0.81-1.52,1.62-1.79,2.74c-0.03,0.15-0.09,0.28-0.16,0.4
		c-0.08,0.12-0.17,0.22-0.28,0.3c-0.09,0.06-0.15,0.14-0.22,0.22c-0.23,0.23-0.43,0.48-0.65,0.7c-0.19,0.19-0.33,0.42-0.44,0.67
		c-0.04,0.09-0.09,0.18-0.12,0.27c-0.05,0.19-0.14,0.38-0.25,0.53c-0.28,0.39-0.58,0.76-0.87,1.14c-0.11,0.14-0.53,1.04-0.72,1.54
		c-0.06,0.15-0.1,0.26-0.1,0.31c0,0.05,0,0.1,0,0.15c0,0.09,0,0.19,0,0.28c-0.01,0.28,0.04,0.57-0.21,0.79
		c-0.05,0.2-0.09,0.4-0.14,0.6c-0.05,0.21-0.11,0.41-0.14,0.62c-0.04,0.29-0.12,0.54-0.27,0.79c-0.16,0.27-0.26,0.56-0.37,0.85
		c-0.04,0.1-0.07,0.22-0.06,0.33c0.01,0.22,0.1,0.47,0.04,0.67c-0.01,0.04-0.05,0.07-0.08,0.1c-0.09,0.11-0.22,0.21-0.31,0.33
		c-0.03,0.04-0.04,0.1-0.06,0.16c-0.02,0.05-0.06,0.1-0.06,0.16c-0.01,0.51-0.28,0.96-0.31,1.47c0,0.08-0.03,0.17-0.05,0.25
		c-0.37,1.02-0.35,2.11-0.49,3.16c-0.01,0.07,0,0.15,0,0.22c0,0.15-0.01,0.3,0,0.45c0.01,0.16-0.01,0.33-0.03,0.49
		c-0.01,0.09,0,0.18-0.02,0.27c-0.04,0.22-0.04,0.45-0.05,0.68c-0.02,0.23-0.05,0.45-0.05,0.68c-0.01,1.1-0.06,2.21,0.28,3.28
		c0.03,0.08,0.01,0.18,0,0.28c0,0.05,0.01,0.09,0,0.14c-0.04,0.48,0.01,0.96,0.08,1.44c0.11,0.73,0.17,1.46,0.26,2.19
		c0.02,0.16-0.07,0.19-0.19,0.21c-0.1,0.01-0.2,0.02-0.3,0.03c-0.04,0.01-0.08,0.01-0.12,0.01l-0.57,0.07
		c-0.51,0.07-1.03,0.13-1.54,0.2c-0.21,0.03-0.41,0.06-0.62,0.1c-0.1,0.02-0.2,0.04-0.31,0.05c-0.92,0.07-1.79,0.3-2.64,0.59
		c-0.23,0.08-0.47,0.16-0.7,0.24c-0.25,0.09-0.49,0.18-0.74,0.28c-0.98,0.38-1.93,0.83-2.89,1.25c-0.08,0.03-0.16,0.06-0.24,0.1
		c-0.08,0.04-0.15,0.07-0.23,0.1c-0.41,0.13-0.77,0.35-1.13,0.57c-0.61,0.37-1.24,0.69-1.85,1.04c0,0,0,0,0,0
		c-0.05,0.03-0.1,0.02-0.15,0.04c-0.16,0.04-0.32,0.02-0.48-0.07c-0.87-0.49-1.68-1.06-2.47-1.66c-0.4-0.31-0.81-0.61-1.2-0.94
		c-0.21-0.18-0.44-0.36-0.66-0.54c-0.38-0.3-0.73-0.62-0.94-1.08c-0.07-0.15-0.17-0.3-0.29-0.42c-0.8-0.81-1.33-1.8-1.88-2.78
		c-0.03-0.06-0.07-0.12-0.1-0.18c-0.35-0.61-0.73-1.2-1.21-1.72c-0.74-0.82-1.54-1.56-2.36-2.3c-0.3-0.27-0.6-0.55-0.9-0.81
		c-0.22-0.2-0.46-0.37-0.71-0.54c-0.25-0.17-0.5-0.33-0.74-0.5c-0.2-0.14-0.44-0.23-0.55-0.47l0,0c0.08-0.08,0.15-0.17,0.23-0.25
		c0.08-0.08,0.15-0.17,0.23-0.25c0.38-0.42,0.75-0.85,1.08-1.3c0.28-0.39,0.55-0.79,0.76-1.23c0.06-0.13,0.14-0.25,0.23-0.36
		c0.61-0.75,1.06-1.6,1.61-2.39c0.15-0.22,0.26-0.47,0.38-0.71c0.08-0.16,0.19-0.31,0.26-0.48c0.07-0.19,0.18-0.37,0.27-0.55
		c0.1-0.19,0.2-0.38,0.31-0.56c0.12-0.2,0.25-0.4,0.37-0.59c0.17-0.27,0.3-0.53,0.27-0.86c-0.01-0.11,0.03-0.22,0.06-0.33
		c0.02-0.09,0.02-0.17,0.05-0.25c0.1-0.25,0.2-0.5,0.31-0.75c0.11-0.25,0.21-0.49,0.31-0.75c0.19-0.53,0.39-1.07,0.57-1.61
		l0.01-0.04c0-0.01,0.01-0.03,0.01-0.04c0.17-0.54,0.33-1.08,0.44-1.65c0.06-0.31,0.11-0.61,0.19-0.91
		c0.16-0.58,0.27-1.17,0.36-1.76c0.09-0.64,0.16-1.28,0.19-1.93c0.03-0.49,0.04-0.99,0.05-1.48c0.01-0.5,0.03-0.99,0.07-1.48
		c0.04-0.45,0.08-0.9-0.01-1.35c-0.02-0.1-0.01-0.2,0-0.29c0-0.02,0-0.03,0-0.05l0.01-0.03c0.02-0.1,0.05-0.2,0.08-0.3
		c0.16-0.51,0.24-1.02,0.27-1.54c0.03-0.49,0.02-0.98-0.04-1.48c-0.03-0.25-0.02-0.51-0.03-0.76c-0.01-0.25-0.03-0.51-0.03-0.76
		c0-0.14-0.02-0.28-0.03-0.42c-0.03-0.31-0.07-0.62-0.17-0.92c-0.03-0.1-0.03-0.21-0.05-0.32c-0.02-0.12-0.04-0.23-0.05-0.35
		c-0.02-0.29-0.06-0.57-0.11-0.86c-0.07-0.38-0.17-0.76-0.35-1.12c-0.15-0.3-0.28-0.63-0.35-0.95c-0.2-0.96-0.58-1.83-1.07-2.67
		c-0.23-0.39-0.42-0.8-0.59-1.22c-0.28-0.68-0.69-1.28-1.09-1.9c-0.04-0.06-0.09-0.11-0.13-0.18c-0.46-0.67-0.97-1.28-1.53-1.86
		c-0.25-0.27-0.51-0.53-0.77-0.79c-0.26-0.26-0.51-0.53-0.77-0.79c-0.34-0.34-0.67-0.69-1.03-1.02c-0.22-0.2-0.46-0.38-0.68-0.58
		c-0.99-0.87-2.02-1.67-3.18-2.32c-1.23-0.69-2.45-1.4-3.66-2.14c-0.21-0.12-0.43-0.2-0.65-0.3c-0.21-0.1-0.42-0.23-0.65-0.3
		c-0.2-0.07-0.4-0.13-0.59-0.2C82.2,67.07,82,67,81.79,66.93c-0.34-0.12-0.67-0.25-0.99-0.41c-0.16-0.08-0.33-0.15-0.47-0.26
		c-0.02-0.02-0.04-0.04-0.07-0.05c-0.24-0.09-0.47-0.2-0.7-0.31c-0.6-0.28-1.2-0.59-1.83-0.81c-0.25-0.09-0.5-0.16-0.76-0.21
		c-0.24-0.05-0.48-0.12-0.71-0.19l-0.02-0.01l-0.02-0.01c-0.24-0.08-0.47-0.17-0.7-0.26c-1.09-0.41-2.22-0.66-3.38-0.76
		c-0.06,0-0.11-0.02-0.17-0.03c-0.06-0.01-0.11-0.02-0.17-0.03c-0.55-0.15-1.1-0.2-1.67-0.23c-0.35-0.02-0.69-0.06-1.04-0.1
		c-0.27-0.03-0.54-0.06-0.81-0.06c-0.19,0-0.39,0.01-0.59,0.02c-0.05,0-0.1,0.01-0.16,0.02c-0.06,0.01-0.12,0.03-0.18,0.02
		c-0.32-0.05-0.65-0.07-0.97-0.07c-0.02,0-0.05,0-0.07,0c-0.3,0-0.6,0-0.9,0c-0.91-0.02-1.81,0.02-2.71,0.1
		c-0.9,0.08-1.8,0.2-2.69,0.36c-0.2,0.04-0.39,0.08-0.59,0.12c-0.67,0.13-1.33,0.26-1.99,0.39c-0.11,0.02-0.22,0.02-0.33,0.03
		c-0.17,0.01-0.34,0.02-0.5,0.01c-0.09-0.01-0.17,0-0.26-0.01c-0.22-0.02-0.45-0.01-0.67-0.01c-0.22,0-0.45,0.03-0.67,0.06
		c-0.22,0.03-0.45,0.06-0.67,0.13c-0.01,0-0.03,0-0.04,0.01c-0.1,0.03-0.22,0.05-0.27,0c-0.07-0.07-0.15-0.1-0.23-0.12
		c-0.13-0.03-0.26,0.01-0.4,0.05c-0.08,0.03-0.16,0.05-0.24,0.06c0,0.01-0.01,0.03-0.01,0.04l0,0c-0.02-0.01-0.03-0.01-0.05-0.02
		c-0.16,0.05-0.32,0.1-0.49,0.14C52.56,64.5,52.51,64.44,52.48,64.4L52.48,64.4z M33.19,83.85c-0.3,0.11-0.6,0.17-0.89,0.25
		c-0.3,0.09-0.57,0.25-0.86,0.34c-0.72,0.22-1.44,0.41-2.15,0.62c-0.13,0.04-0.25,0.07-0.38,0.11c-0.43,0.13-0.83,0.35-1.25,0.51
		c-0.48,0.18-0.96,0.33-1.44,0.49c-0.06,0.02-0.13,0-0.19-0.01c-0.04,0-0.09,0.01-0.13,0c-0.05-0.02-0.08-0.08-0.11-0.15
		c-0.01-0.02-0.02-0.04-0.03-0.06c-0.01-0.03,0.02-0.1,0.06-0.13c0.02-0.01,0.05-0.03,0.07-0.05c0.28-0.2,0.54-0.42,0.84-0.58
		c0.04-0.02,0.08-0.05,0.12-0.08c0.8-0.45,1.56-0.98,2.36-1.42c0.1-0.05,0.18-0.12,0.28-0.16c0.1-0.05,0.19-0.13,0.28-0.2
		c0.74-0.57,1.45-1.19,2.28-1.64c0.07-0.04,0.14-0.1,0.2-0.16c0.28-0.28,0.55-0.56,0.83-0.85l0,0c0.11,0,0.21-0.03,0.29-0.07
		c0.19-0.09,0.33-0.26,0.5-0.39c0.06-0.05,0.13-0.1,0.2-0.13c0.17-0.07,0.31-0.24,0.46-0.36c0.1-0.08,0.19-0.16,0.29-0.24
		c0.12-0.1,0.25-0.18,0.42-0.22c0.06-0.01,0.11-0.04,0.15-0.07c0.18-0.18,0.34-0.38,0.54-0.53c0.2-0.15,0.49-0.19,0.65-0.36
		c0.19-0.21,0.41-0.39,0.62-0.57c0.3-0.26,0.61-0.51,0.91-0.77c0.32-0.28,0.69-0.51,0.94-0.87c0.06-0.09,0.12-0.18,0.16-0.29
		c0.16-0.09,0.32-0.2,0.49-0.27c0.06-0.03,0.12-0.07,0.18-0.07c0.14,0,0.26-0.03,0.36-0.08c0.07-0.03,0.14-0.07,0.21-0.13
		c0.2-0.17,0.4-0.34,0.6-0.52c0.16-0.14,0.33-0.28,0.49-0.43c0.06-0.05,0.14-0.11,0.17-0.19c0.1-0.24,0.26-0.42,0.44-0.56
		c0.19-0.15,0.4-0.26,0.62-0.36c0.4-0.18,0.73-0.42,0.95-0.82c0.06-0.09,0.12-0.19,0.2-0.27c0.04-0.04,0.08-0.09,0.13-0.11
		c0.14-0.06,0.26-0.14,0.38-0.23c0.43-0.3,0.77-0.71,1.21-1c0.16-0.1,0.37-0.16,0.56-0.2c0.02,0,0.05-0.02,0.07-0.02
		c0.98-0.17,1.95-0.36,2.94-0.46c0.9-0.09,1.79-0.26,2.69-0.38c0.34-0.05,0.69-0.1,1.03-0.16c0.68-0.11,1.37-0.22,2.06-0.28
		c0.25-0.02,0.49-0.07,0.73-0.11c0.17-0.03,0.35-0.05,0.52-0.08c0.53-0.11,1.06-0.1,1.6-0.11c0.34-0.01,0.67-0.05,1.01-0.06
		c0.09-0.01,0.18,0.01,0.26,0.01c0.08,0,0.16-0.01,0.24,0.01c1.33,0.3,2.69,0.3,4.04,0.41c0.05,0,0.11,0,0.16,0
		c0.03,0,0.07,0.01,0.09,0c0.08-0.03,0.16-0.03,0.24-0.05c0.59-0.13,1.19-0.07,1.78-0.09c0.14,0,0.28,0,0.42-0.02
		c0.08-0.01,0.17-0.01,0.25,0.02c0.36,0.14,0.72,0.19,1.09,0.22c0.26,0.02,0.52,0.03,0.78,0.03c0.19,0,0.37,0,0.56,0.01
		c0.54,0.02,1.07,0.05,1.61,0.07c0.03,0,0.06,0,0.08,0c0.04,0,0.06,0,0.1,0.01c0.03,0,0.05,0,0.07,0.01
		c0.08,0.06,0.17,0.09,0.26,0.12c0.33,0.12,0.7,0.12,1.02,0.22c0.08,0.03,0.17,0.05,0.24,0.1c0.17,0.11,0.34,0.2,0.52,0.27
		c0.21,0.08,0.42,0.14,0.64,0.18c0.34,0.07,0.68,0.11,1.02,0.14c0.43,0.04,0.84,0.14,1.25,0.22c0.08,0.01,0.16,0.03,0.24,0.05
		c0.17,0.03,0.34,0.06,0.51,0.11c0.13,0.03,0.27,0.08,0.4,0.13c0.08,0.03,0.17,0.05,0.24,0.08c0.1,0.04,0.2,0.09,0.3,0.14
		c0.15,0.08,0.31,0.15,0.47,0.22c0.23,0.08,0.44,0.19,0.66,0.29c0.08,0.04,0.16,0.08,0.25,0.12c0.2,0.11,0.41,0.22,0.6,0.34
		c0.41,0.25,0.91,0.21,1.36,0.35c0.09,0.03,0.18,0.05,0.26,0.09c0.08,0.04,0.15,0.08,0.23,0.12c0.15,0.08,0.3,0.16,0.46,0.2
		c0.12,0.03,0.24,0.06,0.36,0.09c0.28,0.07,0.54,0.17,0.74,0.43c0.03,0.04,0.1,0.06,0.15,0.07c0.14,0.03,0.26,0.07,0.39,0.12
		c0.37,0.16,0.68,0.43,1.04,0.61c0.18,0.09,0.35,0.23,0.53,0.25c0.09,0.01,0.17,0.04,0.25,0.07c0.32,0.11,0.58,0.32,0.86,0.49
		c0.09,0.06,0.19,0.12,0.29,0.16c0.2,0.08,0.36,0.26,0.53,0.44c0.06,0.06,0.11,0.12,0.16,0.17c0.04,0.04,0.07,0.09,0.12,0.13
		c0.05,0.04,0.09,0.09,0.14,0.13c0.04,0.03,0.08,0.07,0.13,0.08c0.61,0.19,0.98,0.76,1.56,1.01c0.18,0.08,0.35,0.19,0.53,0.28
		c0.2,0.1,0.41,0.19,0.59,0.32c0.4,0.27,0.78,0.57,1.24,0.74c0.06,0.02,0.12,0.08,0.16,0.13c0.01,0.01,0.02,0.01,0.03,0.02l0,0
		c0.02,0.03,0.04,0.05,0.06,0.08c0.33,0.5,0.83,0.81,1.33,1.12c0.03,0.02,0.07,0.05,0.1,0.08c0.08,0.07,0.15,0.14,0.16,0.22
		c0.09,0.77,0.55,1.32,1.04,1.84c0.07,0.07,0.14,0.15,0.21,0.22c0.04,0.05,0.07,0.1,0.12,0.15c0.23,0.28,0.42,0.58,0.47,0.95
		c0.03,0.23,0.12,0.42,0.27,0.61c0.07,0.1,0.11,0.21,0.16,0.32c0.06,0.14,0.09,0.3,0.1,0.47c0,0.08,0.03,0.16,0.02,0.25
		c-0.08,0.76,0.12,1.52,0.16,2.28c0.01,0.22,0.08,0.44,0.07,0.66c0,0.01,0,0.01,0,0.02c-0.02,0.51,0.04,1.01,0.12,1.52
		c0.06,0.36,0.08,0.72,0.03,1.09c-0.06,0.39,0.02,0.79,0.04,1.18c0,0.11,0,0.22,0,0.31c-0.05,0.05-0.06,0.07-0.09,0.08l0,0l0,0
		c0,0-0.01,0-0.02,0c-0.02,0-0.04,0-0.05-0.01c-0.18-0.25-0.39-0.49-0.53-0.76c-0.29-0.56-0.63-1.07-1.03-1.56
		c-0.02-0.02-0.04-0.06-0.06-0.08c-0.05-0.07-0.08-0.15-0.08-0.21c0.05-0.3-0.11-0.48-0.29-0.66c-0.2-0.2-0.35-0.43-0.52-0.66
		c-0.09-0.11-0.18-0.22-0.26-0.34c-0.18-0.24-0.38-0.47-0.58-0.69c-0.09-0.09-0.17-0.19-0.26-0.28c-0.19-0.2-0.39-0.4-0.58-0.6
		c-0.34-0.34-0.72-0.63-1.01-1.03c-0.09-0.12-0.21-0.21-0.33-0.3c-0.04-0.03-0.07-0.07-0.1-0.09c-0.22-0.17-0.43-0.33-0.65-0.49
		c-0.31-0.22-0.61-0.44-0.91-0.68c-1.02-0.82-2.19-1.4-3.3-2.06c-0.93-0.55-1.92-0.96-2.9-1.4c-0.12-0.06-0.25-0.1-0.38-0.14
		c-0.24-0.08-0.49-0.14-0.76-0.16c-0.53-0.04-1.04-0.24-1.52-0.49c-0.25-0.13-0.52-0.28-0.79-0.29c-0.55-0.02-1.06-0.21-1.57-0.35
		c-0.52-0.13-1.05-0.2-1.58-0.28c0,0-0.01,0-0.01,0c-0.1-0.01-0.21,0.01-0.31-0.02c-0.01,0-0.01,0-0.02,0
		c-0.33-0.12-0.68-0.17-1.03-0.21c-0.18-0.02-0.37-0.04-0.55-0.07c-1.14-0.19-2.29-0.37-3.43-0.55c-0.06-0.01-0.12,0-0.18,0
		c-0.02,0-0.05-0.01-0.08,0c-0.05,0.01-0.1,0-0.15,0.01c-0.43,0.06-0.86,0.02-1.28-0.01c-0.37-0.02-0.75,0-1.12,0.01
		c-0.25,0.01-0.5-0.01-0.74,0.01c-0.82,0.06-1.64,0.04-2.46,0.07c-0.4,0.01-0.81,0.03-1.21,0.04c-1.09,0.04-2.19,0.08-3.28,0.19
		c-0.12,0.01-0.24,0.01-0.36,0.01c-0.05,0-0.1,0-0.15,0.01c-0.22,0.01-0.45,0.02-0.67,0.04c-0.45,0.05-0.9,0.12-1.34,0.16
		c-0.53,0.06-1.07,0.09-1.6,0.15c-0.54,0.05-1.07,0.12-1.6,0.18c-0.11,0.01-0.23,0.02-0.34,0.05c-1.48,0.27-2.95,0.53-4.43,0.8
		c-0.05,0.01-0.1,0.02-0.16,0.03c-0.56,0.1-1.13,0.19-1.67,0.34c-0.75,0.21-1.5,0.4-2.25,0.57c-0.79,0.18-1.57,0.36-2.36,0.55
		c-0.85,0.21-1.7,0.43-2.53,0.71c-0.26,0.09-0.54,0.14-0.81,0.19c-0.14,0.03-0.28,0.07-0.42,0.1c-0.07,0.02-0.15,0.03-0.22,0.05
		c-0.12,0.02-0.24,0.05-0.36,0.08c-1.03,0.31-2.06,0.63-3.08,0.96C34.68,83.32,33.93,83.56,33.19,83.85z M78.37,95.6
		c0.3,0.46,0.67,0.84,1.14,1.11c0.37,0.21,0.73,0.43,1.08,0.67c0.25,0.17,0.47,0.37,0.7,0.57c0.32,0.29,0.63,0.59,0.93,0.92
		c0.07,0.07,0.13,0.16,0.19,0.24c0.06,0.08,0.13,0.15,0.22,0.19c0.2,0.09,0.36,0.2,0.47,0.34c0.11,0.14,0.16,0.32,0.14,0.56
		c-0.01,0.07,0.05,0.16,0.1,0.23c0.04,0.06,0.05,0.13,0.09,0.19c0.16,0.27,0.29,0.56,0.37,0.86c0.07,0.23,0.12,0.46,0.19,0.69
		c0.08,0.27,0.13,0.55-0.07,0.81c-0.04,0.06-0.07,0.18-0.05,0.24c0.01,0.03,0,0.07,0.01,0.1c0.06,0.25,0.04,0.5,0.03,0.74
		c0,0.06-0.01,0.11-0.01,0.16c0.01,0.1-0.03,0.19-0.04,0.29c-0.03,0.2-0.08,0.39-0.17,0.57c-0.04,0.08-0.08,0.17-0.12,0.25
		c-0.16,0.3-0.35,0.58-0.54,0.86c-0.18,0.28-0.38,0.55-0.6,0.79c-0.19,0.21-0.4,0.4-0.67,0.55c-0.17,0.1-0.33,0.23-0.48,0.36
		c-0.08,0.07-0.17,0.15-0.26,0.22c-0.16,0.12-0.33,0.23-0.5,0.32c-0.04,0.02-0.07,0.05-0.1,0.07c-0.21,0.1-0.44,0.16-0.7,0.15
		c-0.11,0-0.22,0.04-0.33,0.07c-0.44,0.13-0.87,0.24-1.33,0.21c-0.06-0.01-0.08,0.02-0.13,0.03c-0.11,0.02-0.18,0.08-0.22,0.17
		c-0.02,0.05-0.06,0.07-0.06,0.14c-0.03,0.52-0.35,0.95-0.44,1.45c-0.01,0.05-0.02,0.05-0.03,0.08c-0.02,0.08-0.04,0.17-0.08,0.19
		c-0.05,0.04-0.13,0.02-0.25-0.03c-0.08-0.03-0.16-0.07-0.25-0.11c-0.18-0.07-0.35-0.14-0.56-0.07l0,0
		c-0.49-0.28-1.1-0.16-1.57-0.52c-0.08-0.07-0.19-0.1-0.28-0.15c-0.16-0.08-0.34-0.13-0.52-0.16c-0.08-0.01-0.15-0.04-0.23-0.04
		c-0.17-0.01-0.33-0.08-0.49-0.14c-0.22-0.1-0.37-0.41-0.3-0.64c0.08-0.29,0.18-0.57,0.28-0.85c0.02-0.07,0.05-0.13,0.06-0.2
		c0.05-0.18,0.07-0.31,0.03-0.4c-0.04-0.09-0.14-0.15-0.3-0.18c-0.04-0.01-0.06-0.02-0.1-0.03c-0.4-0.11-0.69-0.39-0.99-0.64
		c-0.03-0.03-0.07-0.06-0.11-0.09c-0.4-0.31-0.75-0.67-1.23-0.88c-0.3-0.13-0.41-0.51-0.69-0.7c-0.03-0.02-0.04-0.06-0.05-0.09
		c-0.01-0.02-0.02-0.03-0.03-0.04c-0.01-0.06,0.01-0.12,0.04-0.17c0.13-0.2,0.23-0.42,0.32-0.64c0.12-0.27,0.22-0.54,0.34-0.81
		c0.09-0.19,0.19-0.37,0.28-0.56c0.21-0.41,0.42-0.82,0.64-1.22c0.1-0.18,0.2-0.36,0.3-0.54c0.07-0.14,0.16-0.12,0.27-0.04
		c0.01,0.01,0.02,0.01,0.03,0.02c0.09,0.05,0.19,0.09,0.25,0.16c0.09,0.1,0.18,0.21,0.27,0.31c0.2,0.24,0.39,0.49,0.61,0.71
		c0.23,0.23,0.45,0.52,0.73,0.66c0.5,0.25,0.93,0.66,1.52,0.72c0.11,0.01,0.2,0.03,0.28,0.08c0.07,0.05,0.13,0.13,0.16,0.25
		c0.02,0.07,0.09,0.16,0.15,0.18c0,0,0,0,0,0c0.03,0.01,0.07,0.03,0.1,0.04c0.23,0.09,0.45,0.19,0.7,0.22
		c0.01,0,0.03,0.01,0.04,0.01c0.02,0,0.04,0,0.06,0c0.08,0,0.16,0,0.25-0.02c0.19-0.05,0.38,0,0.58,0.06
		c0.11,0.03,0.21,0.05,0.3,0.06c0.25,0.01,0.4-0.11,0.62-0.42c0.04-0.05,0.07-0.11,0.11-0.16c0.01-0.02,0.02-0.04,0.03-0.05
		c0.21-0.16,0.37-0.29,0.35-0.62c-0.01-0.15-0.02-0.29-0.03-0.44c0-0.06,0-0.13-0.01-0.19c-0.03-0.21-0.1-0.4-0.24-0.58
		c-0.1-0.13-0.23-0.24-0.35-0.34c0,0-0.01-0.01-0.01-0.01c-0.96-0.79-1.91-1.58-2.89-2.35c-0.17-0.13-0.32-0.28-0.48-0.42
		c-0.3-0.27-0.58-0.57-0.73-0.98c-0.12-0.15-0.19-0.31-0.28-0.47c-0.04-0.08-0.1-0.15-0.14-0.24c-0.34-0.73-0.41-1.52-0.34-2.34
		c0.01-0.17,0.02-0.34,0.02-0.51c0-0.08,0.02-0.15,0.02-0.22c0.01-0.13,0.05-0.26,0.11-0.38c0.03-0.06,0.04-0.13,0.08-0.19
		c0.06-0.1,0.11-0.21,0.14-0.33c0.03-0.1,0.06-0.21,0.09-0.31c0.07-0.24,0.14-0.47,0.24-0.7c0.12-0.28,0.29-0.55,0.56-0.75
		c0.15-0.22,0.36-0.38,0.55-0.56c0.17-0.16,0.33-0.32,0.52-0.46c0.28-0.2,0.58-0.39,0.91-0.54c0.08-0.04,0.16-0.08,0.25-0.11
		c0.18-0.08,0.35-0.18,0.5-0.3c0.06-0.05,0.14-0.08,0.19-0.14c0.33-0.05,0.65,0.11,0.98,0.03c0.11-0.03,0.22-0.03,0.34-0.04
		c0.07,0,0.1-0.04,0.15-0.06c0.15-0.06,0.26-0.16,0.32-0.35c0.14-0.49,0.3-0.97,0.31-1.5c0-0.11,0.03-0.18,0.08-0.22
		c0.01-0.01,0.05-0.01,0.07-0.02c0.05-0.02,0.1-0.04,0.18-0.04c0.03,0,0.05,0,0.08,0c0.19,0,0.37,0.03,0.56,0.14
		c0.03,0.02,0.08,0.03,0.11,0.05c0.16,0.08,0.34,0.13,0.52,0.16c0.06,0.01,0.11,0.03,0.17,0.03c0.49,0.07,0.94,0.21,1.39,0.39
		c0.36,0.15,0.72,0.32,1.07,0.51c0.12,0.06,0.13,0.19,0.09,0.3c-0.07,0.18-0.17,0.35-0.25,0.52c-0.06,0.32-0.12,0.62-0.18,0.92
		c0.02,0.02,0.05,0.03,0.07,0.05c0.21,0.15,0.43,0.28,0.6,0.46c0.2,0.22,0.43,0.38,0.67,0.54c0.39,0.28,0.79,0.53,1.17,0.82
		c0.44,0.33,0.5,0.39,0.32,0.77c-0.03,0.05-0.04,0.09-0.07,0.15c-0.06,0.12-0.13,0.23-0.19,0.35c-0.23,0.44-0.45,0.87-0.7,1.29
		c-0.1,0.17-0.19,0.33-0.27,0.51c-0.1,0.21-0.17,0.43-0.2,0.67c-0.02,0.2-0.22,0.26-0.38,0.13c-0.39-0.32-0.79-0.64-1.18-0.97
		c-0.97-0.81-2.08-1.36-3.32-1.63c-0.06-0.01-0.12,0-0.18-0.01c-0.26-0.03-0.5-0.01-0.75,0.08c-0.07,0.03-0.15,0.03-0.23,0.07
		C78.05,93.95,77.86,94.83,78.37,95.6z M97.74,172.5c-0.02,0-0.03-0.03-0.05-0.05c0.02,0,0.05-0.02,0.07-0.01
		c0.04,0.02,0.08,0.05,0.12,0.08C97.84,172.51,97.79,172.51,97.74,172.5z M173.15,147.61c-0.12,0.02-0.25,0.03-0.37,0.05
		c-0.13,0.02-0.25,0.05-0.38,0.05c-0.31,0.01-0.63,0-0.94-0.01c-0.28,0-0.56,0-0.84-0.01c-0.28,0-0.57,0.01-0.85,0.02
		c-1.61,0.03-3.23,0.11-4.84,0.09c-0.95-0.01-1.89,0.02-2.84,0.03c-0.81,0.01-1.61,0-2.42,0.02c-0.45,0.01-0.9,0.05-1.35,0.12
		c-0.54,0.08-1.08,0.12-1.62,0.16c-0.67,0.05-1.34,0.08-2.01,0.13c-0.25,0.02-0.49,0.04-0.74,0.05c-0.2,0.01-0.41,0.02-0.61,0.04
		c-0.01,0-0.01,0-0.02,0c-0.61,0.07-1.22,0.07-1.83,0.06c-0.6-0.01-1.2-0.04-1.8,0c-1.47,0.07-2.94,0.19-4.4,0.33
		c-0.7,0.07-1.41,0.13-2.11,0.22c-0.56,0.07-1.12,0.19-1.68,0.26c-1.15,0.15-2.31,0.28-3.46,0.43c-0.9,0.12-1.79,0.26-2.69,0.4
		c-0.08,0.01-0.15,0.06-0.15,0.17c0.01,0.14-0.02,0.31,0.13,0.38c0.08,0.04,0.18,0.04,0.27,0.07c0.1,0.02,0.2,0.06,0.3,0.07
		c0.59,0.07,1.17,0.13,1.76,0.19c0.65,0.07,1.3,0.13,1.95,0.21c1.08,0.12,2.16,0.24,3.24,0.39c0.41,0.06,0.82,0.1,1.22,0.17
		c0.62,0.11,1.24,0.2,1.86,0.3c0.67,0.11,1.33,0.22,2,0.32c0.17,0.03,0.33,0.04,0.47,0.15c0.31,0.22,0.68,0.32,1.04,0.34
		c0.11,0.01,0.22,0.03,0.33,0.05c0.25,0.04,0.5,0.1,0.76,0.15c0.16,0.03,0.32,0.05,0.48,0.07c0.17,0.03,0.35,0.06,0.52,0.08
		c0.1,0.01,0.24,0,0.32-0.06c0.07-0.05,0.14-0.07,0.21-0.07c0.06,0,0.13,0.01,0.19,0.03c0.21,0.06,0.42,0.13,0.63,0.19
		c0.17,0.05,0.34,0.1,0.51,0.15l-0.01-0.03l0.1,0.03c0.03-0.01,0.06,0,0.1,0c0.25-0.01,0.46,0.06,0.65,0.21
		c0.03,0.02,0.05,0.03,0.08,0.05l0.09,0.03c-0.01,0-0.01,0.01-0.02,0.01c0.05-0.01,0.09-0.01,0.14-0.02
		c0.04-0.01,0.08-0.02,0.11-0.02c0.64,0.13,1.27,0.26,1.91,0.4c0.05,0.01,0.08,0.03,0.08,0.05c0,0-0.01,0.01-0.01,0.01
		c0,0.02-0.01,0.03-0.05,0.05c-0.02,0.01-0.05-0.01-0.08-0.01c-0.05,0-0.14-0.02-0.16,0.01c-0.01,0.01,0,0.01,0,0.01
		c-0.06,0.09,0.06,0.07,0.1,0.11c0.01,0.02,0.05,0.02,0.08,0.03c0.01,0.01,0.03,0.01,0.05,0.01c0.01,0,0.02,0.01,0.04,0.01
		c0.6,0.07,1.18,0.22,1.76,0.39c0.67,0.2,1.33,0.44,2.01,0.63c0.28,0.08,0.53,0.17,0.82,0.04c0,0,0,0,0.01,0
		c0.09-0.04,0.22,0,0.33,0.02c0.14,0.03,0.28,0.06,0.41,0.11c1.49,0.47,2.98,0.94,4.46,1.41c0.11,0.04,0.21,0.08,0.32,0.12
		c0.02,0.01,0.04,0.04,0.07,0.05c-0.03,0.02-0.07,0.05-0.1,0.04c-0.14-0.02-0.28-0.06-0.42-0.08c-0.04-0.01-0.09,0.02-0.13,0.04
		c0.01,0.01,0.02,0.01,0.02,0.03c0.01,0.01,0.02,0.03,0.03,0.04c0.43,0.14,0.86,0.28,1.3,0.39c0.16,0.04,0.33,0.09,0.49,0.11
		c0.61,0.08,1.19,0.28,1.74,0.54c0.24,0.11,0.48,0.21,0.71,0.36c0.03,0.02,0.05,0.11,0.04,0.14l0,0c0,0.01-0.03,0.01-0.04,0.03
		c-0.03,0.02-0.06,0.05-0.08,0.05c-0.64-0.13-1.28-0.25-1.91-0.39c-0.32-0.07-0.63-0.16-0.94-0.25c-0.3-0.08-0.6-0.14-0.9-0.21
		c-0.32-0.08-0.63-0.16-0.96-0.21c-0.15-0.02-0.29-0.04-0.44-0.06c-0.13-0.02-0.27-0.03-0.4-0.05c-0.31-0.06-0.63-0.1-0.94-0.15
		c-0.38-0.06-0.76-0.13-1.12-0.3c-0.06-0.03-0.14-0.04-0.22-0.05c-0.07-0.01-0.13-0.02-0.2-0.03c-0.08,0-0.17-0.01-0.24,0
		c-0.12,0.01-0.24,0-0.36,0c-0.28-0.01-0.55-0.04-0.82-0.13c-0.31-0.1-0.64-0.17-0.96-0.25c-0.81-0.2-1.62-0.36-2.44-0.49
		c-1.17-0.18-2.35-0.35-3.52-0.58c-0.57-0.11-1.15-0.2-1.73-0.3c-0.68-0.11-1.36-0.22-2.03-0.36c-0.98-0.21-1.96-0.27-2.94-0.39
		c-0.23-0.03-0.46-0.08-0.68-0.13c-0.24-0.05-0.48-0.11-0.72-0.15c-1.14-0.19-2.29-0.34-3.44-0.51c-0.03,0-0.06-0.01-0.08-0.01
		c-0.99-0.29-2.01-0.3-3.03-0.38c-1.49-0.12-2.99-0.23-4.48-0.34c-0.36-0.03-0.41,0.01-0.41,0.35c0,0.02,0,0.04,0,0.06
		c-0.03,0.94-0.06,1.88-0.2,2.82c-0.13,0.87-0.26,1.74-0.51,2.58c-0.15,0.52-0.28,1.04-0.37,1.57c-0.13,0.72-0.39,1.43-0.6,2.13
		c-0.03,0.09-0.09,0.17-0.16,0.23c-0.01,0.01-0.02,0.03-0.03,0.04c-0.37,0.26-0.76,0.5-1.14,0.74c-0.03,0.02-0.07,0.02-0.1,0.03
		c-0.05,0.02-0.09,0.05-0.14,0.05c-0.28-0.02-0.51,0.09-0.73,0.22c-0.12,0.07-0.24,0.14-0.36,0.22c-0.58,0.38-1.18,0.7-1.8,1
		c-0.33,0.15-0.65,0.31-1,0.44c-0.16,0.05-0.3,0.15-0.46,0.23c-0.44,0.24-0.89,0.46-1.33,0.68c-0.9,0.45-1.8,0.87-2.77,1.18
		c-0.27,0.08-0.55,0.19-0.82,0.28c-0.4,0.14-0.79,0.27-1.19,0.41c-0.05,0.02-0.09,0.04-0.14,0.07c-0.03,0.01-0.07,0.02-0.09,0.04
		c-0.3,0.4-0.78,0.44-1.2,0.6c-0.1,0.04-0.19,0.07-0.29,0.1c-0.3,0.11-0.6,0.2-0.93,0.21c-0.3,0.01-0.6,0.15-0.9,0.25
		c-0.89,0.3-1.77,0.61-2.66,0.9c-1.56,0.52-3.18,0.84-4.79,1.15c-1.05,0.2-2.1,0.37-3.16,0.51c-0.85,0.11-1.7,0.22-2.56,0.28
		c-0.16,0.01-0.33,0-0.48,0.13c-0.03,0.03-0.09,0.02-0.13,0.03c-0.06,0.02-0.12,0.04-0.18,0.05c-0.7,0.08-1.4,0.08-2.1,0.03
		c-0.26-0.02-0.52-0.02-0.77-0.06c-0.11-0.02-0.22-0.03-0.32-0.04c-0.08-0.01-0.16-0.04-0.24-0.06c-0.11-0.03-0.22-0.05-0.32-0.13
		c-0.09-0.08-0.27-0.08-0.41-0.09c-0.51-0.04-1.01-0.09-1.52-0.13c-0.54-0.04-1.07-0.08-1.6-0.14c-0.42-0.04-0.83-0.12-1.25-0.18
		c-0.2-0.03-0.4-0.07-0.6-0.09c-0.27-0.03-0.53-0.09-0.79-0.14c-0.58-0.13-1.15-0.3-1.74-0.4c-0.24-0.04-0.47-0.07-0.71-0.08
		c-0.05,0-0.11,0-0.16-0.02c-0.49-0.26-1.01-0.47-1.53-0.66c-0.51-0.19-1.03-0.36-1.55-0.54c-0.16-0.06-0.3-0.14-0.45-0.2
		c-0.44-0.19-0.85-0.42-1.22-0.76c-0.19-0.18-0.44-0.31-0.69-0.43c-0.19-0.09-0.39-0.17-0.58-0.25c-0.25-0.11-0.49-0.24-0.72-0.37
		c-0.21-0.12-0.42-0.23-0.62-0.36c-0.26-0.17-0.52-0.34-0.77-0.52c-0.43-0.32-0.88-0.62-1.33-0.91c-0.52-0.34-1.07-0.64-1.44-1.16
		c-0.1-0.13-0.26-0.22-0.39-0.33c-0.74-0.6-1.47-1.22-2.18-1.85c-2-1.77-3.87-3.68-5.6-5.74c-0.26-0.3-0.54-0.59-0.76-0.92
		c-1.27-1.95-2.79-3.72-4-5.7c-0.17-0.28-0.35-0.56-0.52-0.84c-0.14-0.23-0.29-0.45-0.42-0.68c-0.55-0.93-1.09-1.86-1.6-2.8
		c-0.02-0.04-0.05-0.08-0.07-0.12c-0.54-0.98-1.05-1.98-1.54-2.99c-0.36-0.74-0.69-1.5-1.04-2.24c-0.13-0.28-0.15-0.55-0.09-0.84
		c0.01-0.05,0-0.1,0.02-0.15c0.26-0.78,0.49-1.57,0.74-2.36c0.06-0.19,0.11-0.38,0.16-0.57c0.01-0.04,0.03-0.08,0.04-0.12
		c0.08-0.29,0.19-0.58,0.33-0.85c0.05-0.09,0.08-0.19,0.14-0.28c0.06-0.09,0.1-0.19,0.15-0.28c0.14-0.26,0.27-0.54,0.39-0.81
		c0.02-0.04,0.04-0.09,0.06-0.13c0.17-0.38,0.35-0.74,0.54-1.11c0.19-0.36,0.41-0.71,0.64-1.05c0.1-0.14,0.16-0.3,0.22-0.46
		c0.04-0.1,0.06-0.19,0.07-0.27c0.02-0.25-0.11-0.42-0.42-0.55c-0.66-0.27-1.27-0.61-1.89-0.96c-0.64-0.37-1.27-0.75-1.92-1.09
		c-1.26-0.65-2.5-1.32-3.75-1.99c-0.25-0.13-0.5-0.27-0.74-0.41c-0.34-0.2-0.71-0.35-1.07-0.53c-0.33-0.16-0.65-0.34-0.99-0.49
		c-0.35-0.16-0.7-0.31-1.06-0.47c-0.92-0.4-1.83-0.81-2.7-1.31c-0.25-0.15-0.51-0.26-0.78-0.39c-0.2-0.09-0.39-0.2-0.59-0.29
		c-0.53-0.25-1.06-0.5-1.58-0.75c-0.55-0.26-1.09-0.52-1.64-0.77c-0.49-0.23-0.99-0.44-1.48-0.66c-0.59-0.26-1.19-0.52-1.78-0.79
		c-0.59-0.27-1.18-0.54-1.77-0.81c-0.49-0.23-0.98-0.45-1.47-0.68c-0.29-0.13-0.58-0.26-0.88-0.39c-0.28-0.12-0.55-0.24-0.83-0.36
		c-0.38-0.17-0.75-0.34-1.13-0.51c-0.4-0.18-0.8-0.36-1.2-0.54c-0.23-0.1-0.48-0.19-0.71-0.28c-0.18-0.08-0.37-0.15-0.54-0.26
		c-0.12-0.08-0.23-0.19-0.34-0.29l0,0c0,0,0,0,0,0c0.08,0.02,0.15,0.04,0.23,0.05c0.06,0.01,0.13,0.02,0.19,0.04
		c1.25,0.39,2.49,0.78,3.74,1.16c0.45,0.14,0.89,0.27,1.34,0.4c0.56,0.16,1.12,0.31,1.7,0.41c0.23,0.04,0.46,0.1,0.69,0.17l0.01,0
		c0.01,0,0.01,0.01,0.02,0.01c0.22,0.08,0.44,0.18,0.63,0.33c0.07,0.05,0.16,0.09,0.25,0.12c0,0,0.01,0,0.01,0.01
		c0.1,0.03,0.19,0.05,0.29,0.08c0.51,0.16,1.04,0.3,1.54,0.48c0.35,0.12,0.68,0.29,1.02,0.43c0.16,0.07,0.33,0.12,0.49,0.19
		c0.13,0.05,0.25,0.11,0.38,0.15c1.16,0.31,2.23,0.82,3.3,1.35c0.46,0.23,0.92,0.43,1.38,0.65c0.59,0.28,1.18,0.56,1.76,0.84
		c0.06,0.03,0.12,0.06,0.18,0.09c0.07,0.03,0.13,0.07,0.2,0.09c0.28,0.12,0.57,0.22,0.85,0.34c0.3,0.12,0.61,0.25,0.91,0.37
		c0.28,0.11,0.56,0.22,0.83,0.35c0.87,0.41,1.79,0.69,2.6,1.24c0.34,0.23,0.78,0.32,1.18,0.48c0.12,0.05,0.24,0.1,0.36,0.15
		c0.11,0.05,0.23,0.09,0.34,0.14c1,0.53,1.99,1.07,2.99,1.6c0.67,0.36,1.35,0.72,2.02,1.08c0.08,0.04,0.16,0.07,0.23,0.11
		c0.09,0.04,0.16,0.06,0.23,0.08c0.27,0.08,0.4-0.01,0.59-0.34c0.11-0.18,0.1-0.28-0.04-0.46c-0.23-0.3-0.48-0.58-0.75-0.85
		c-0.24-0.24-0.48-0.46-0.73-0.68c-1.3-1.18-2.6-2.37-3.93-3.51c-0.72-0.62-1.46-1.22-2.19-1.83c-0.9-0.75-1.8-1.51-2.7-2.26
		c-0.07-0.06-0.15-0.1-0.22-0.15c-0.07-0.04-0.13-0.09-0.2-0.13c-0.06-0.03-0.12-0.06-0.18-0.09c-0.07-0.03-0.13-0.06-0.2-0.1
		c-0.17-0.11-0.34-0.21-0.48-0.35c-0.14-0.14-0.31-0.26-0.47-0.38c-0.22-0.17-0.43-0.35-0.65-0.51c-0.16-0.12-0.33-0.23-0.47-0.37
		c-0.34-0.33-0.67-0.68-1.03-1c-0.99-0.88-2.03-1.69-3.08-2.5c-0.37-0.28-0.73-0.57-1.1-0.84c-0.64-0.47-1.27-0.95-1.9-1.43
		c-0.93-0.7-1.86-1.4-2.79-2.09c-0.49-0.37-0.99-0.72-1.48-1.08c-0.61-0.44-1.21-0.88-1.81-1.32c-0.03-0.02-0.05-0.04-0.08-0.07
		c-0.02-0.01-0.03-0.03-0.05-0.04l0,0l0,0c0.07,0,0.15-0.02,0.22,0c0.04,0.01,0.08,0.03,0.12,0.05c0.04,0.01,0.08,0.02,0.12,0.04
		c0.3,0.16,0.6,0.32,0.9,0.48c0.59,0.34,1.16,0.7,1.83,0.89c0.13,0.04,0.25,0.13,0.36,0.21c2.8,1.87,5.72,3.55,8.51,5.44
		c0.56,0.38,1.12,0.77,1.68,1.15c0.26,0.17,0.54,0.32,0.8,0.49c0.12,0.07,0.23,0.16,0.35,0.24c0.17,0.11,0.35,0.21,0.49,0.34
		c0.23,0.2,0.47,0.38,0.71,0.56c0.59,0.46,1.19,0.9,1.79,1.34c0.85,0.65,1.69,1.31,2.52,1.99c0.99,0.81,1.98,1.63,2.93,2.49
		c1.08,0.96,2.15,1.93,3.21,2.91c0.69,0.63,1.39,1.26,2.08,1.88c0.43,0.38,0.53,0.48,0.83,0.31c0.02-0.01,0.05-0.03,0.06-0.04
		c0.09-0.06,0.18-0.12,0.32-0.22c0.09-0.07,0.19-0.14,0.29-0.2c0.07-0.05,0.13-0.09,0.2-0.14c0.06-0.04,0.07-0.07,0.1-0.11
		c0.02-0.02,0.06-0.05,0.07-0.08c0.01-0.06-0.02-0.13-0.09-0.23c-0.19-0.27-0.37-0.53-0.56-0.79c-0.52-0.73-1.03-1.47-1.56-2.2
		c-0.64-0.87-1.3-1.72-1.95-2.58c-0.15-0.2-0.29-0.42-0.43-0.63c-0.19-0.28-0.36-0.58-0.58-0.84c-2.12-2.59-4.25-5.18-6.38-7.76
		c-0.41-0.5-0.87-0.98-1.29-1.47c-0.38-0.45-0.75-0.9-1.12-1.35c-0.29-0.36-0.59-0.72-0.89-1.07c-0.53-0.6-1.07-1.2-1.6-1.8
		c-0.8-0.91-1.6-1.82-2.42-2.72c-1.35-1.49-2.74-2.95-4.1-4.44c-0.05-0.05-0.1-0.11-0.16-0.16c-0.1-0.1-0.19-0.21-0.21-0.35l0,0
		c-0.01,0-0.02-0.01-0.03-0.01l0,0c0-0.01,0-0.01,0-0.03c-0.11-0.04-0.21-0.09-0.23-0.22c-0.02-0.01-0.03-0.01-0.05-0.02
		c0-0.02,0-0.04-0.01-0.06c-0.01-0.02-0.03-0.03-0.04-0.05c0.01,0.01,0.04,0.02,0.04,0.03c0,0.01,0,0.01,0,0.02
		c0.01,0.01,0.03,0.03,0.04,0.04l0,0c0,0.02,0.01,0.02,0.02,0.03c0.05,0.02,0.1,0.03,0.15,0.05c0,0,0.01,0.01,0.01,0.01
		c0.05,0.03,0.08,0.08,0.07,0.16c0.01,0,0.02,0.01,0.02,0.01c0,0.01,0.01,0.01,0.01,0.02c0.14,0.02,0.25,0.08,0.35,0.16
		c0.04,0.03,0.09,0.06,0.13,0.1c0.62,0.51,1.22,1.06,1.83,1.59c0.93,0.8,1.88,1.59,2.79,2.42c1.16,1.06,2.29,2.14,3.4,3.24
		c0.7,0.69,1.4,1.39,2.08,2.09c0.92,0.95,1.83,1.92,2.72,2.9c0.1,0.11,0.21,0.22,0.31,0.34c0.95,1.04,1.89,2.1,2.81,3.18
		c0.42,0.49,0.84,0.98,1.26,1.47c0.28,0.33,0.56,0.66,0.85,0.99c0.55,0.62,1.14,1.18,1.69,1.79c0.63,0.7,1.23,1.41,1.67,2.25
		c0.05,0.1,0.12,0.19,0.19,0.28c0.59,0.77,1.18,1.54,1.76,2.31c0.45,0.58,0.89,1.16,1.34,1.75c0.16,0.21,0.23,0.3,0.58,0.17
		c0.48-0.18,0.94-0.39,1.42-0.57c2.56-0.98,5.2-1.33,7.93-1.08c1.71,0.15,3.25,0.71,4.66,1.59c0.39,0.25,0.77,0.5,1.14,0.8
		c0.4,0.32,0.77,0.66,1.1,1.05l0,0c0.57,0.68,1.13,1.37,1.66,2.08c0.27,0.36,0.54,0.71,0.78,1.08c0.18,0.29,0.38,0.56,0.57,0.85
		c0.26,0.41,0.5,0.82,0.65,1.29c0.08,0.25,0.2,0.48,0.32,0.72c0.07,0.15,0.13,0.3,0.2,0.45c0.04,0.09,0.05,0.15,0.03,0.2
		c-0.01,0.02-0.04,0.03-0.06,0.05c-0.03,0.03-0.04,0.06-0.1,0.08c-0.21,0.09-0.41,0.21-0.6,0.32c-1.11,1.02-3.16,3.1-4.05,5.23
		c-0.01,0.08-0.04,0.16-0.06,0.24c-0.02,0.17-0.06,0.34-0.1,0.5c-0.12,0.4-0.2,0.8-0.27,1.21c-0.08,3.55,2.43,10.29,3.94,11.66
		c1.56,1.41,3.12,4.85,4.06,5.3c0,0,2.98-1.24,4.08-1.82c1.1-0.58,5.33-3.26,5.33-3.26l3.8-2.88l0,0c0.27-0.45,0.64-0.8,1.04-1.1
		c0.03-0.03,0.06-0.06,0.09-0.1c0.67-0.79,1.47-1.87,1.9-3.01c0.45-1.17,0.72-2.09,0.73-3.01l0,0c0.01-0.82-0.18-1.64-0.65-2.66
		c-0.48-1.02-0.96-1.75-1.12-2.14l0,0c-0.08-0.18-0.07-0.29,0.03-0.31c0.04-0.01,0.08-0.01,0.16,0c0.05,0.01,0.14,0.03,0.26,0.05
		c1.27-0.71,2.59-1.32,4-1.69c0.36-0.09,0.72-0.18,1.08-0.26c1.24-0.28,2.49-0.48,3.78-0.41c0.53,0.03,1.07,0.1,1.6,0.18
		c1.49,0.23,2.77,0.95,4.03,1.71c0.24,0.14,0.46,0.31,0.68,0.46c0.54,0.37,1.07,0.77,1.55,1.23c0.16,0.15,0.34,0.3,0.53,0.43
		c0.67,0.48,1.24,1.06,1.76,1.68c0.26,0.31,0.53,0.61,0.77,0.93c0.09,0.12,0.16,0.26,0.23,0.39c0.15,0.26,0.28,0.53,0.44,0.8
		c0.17,0.29,0.26,0.32,0.56,0.22c0.13-0.05,0.27-0.08,0.4-0.13c0.43-0.14,0.87-0.27,1.32-0.31c0.14-0.01,0.27-0.08,0.4-0.13
		c0.13-0.05,0.26-0.14,0.39-0.16c0.38-0.07,0.75-0.21,1.11-0.33c0.79-0.26,1.57-0.55,2.36-0.8c0.16-0.05,0.32-0.09,0.48-0.14
		c0.22-0.06,0.45-0.13,0.67-0.19c0.21-0.06,0.41-0.12,0.62-0.18c0.15-0.04,0.3-0.08,0.44-0.13c0.33-0.1,0.67-0.2,1-0.31
		c1.07-0.33,2.15-0.65,3.26-0.87c0.31-0.06,0.62-0.15,0.92-0.22c0.63-0.16,1.25-0.33,1.88-0.5c2.47-0.64,4.96-1.21,7.47-1.65
		c1.09-0.19,2.2-0.2,3.28-0.39c0.34-0.06,0.69-0.1,1.04-0.15c0.44-0.06,0.88-0.12,1.31-0.2c0.64-0.12,1.28-0.24,1.92-0.32
		c1.26-0.17,2.53-0.33,3.8-0.39c0.14-0.01,0.28-0.04,0.43-0.06c0.39-0.06,0.77-0.14,1.16-0.21c0,0,0,0,0,0
		c0.17-0.03,0.33-0.09,0.49-0.09c0.6-0.03,1.2-0.05,1.8-0.07c0.5-0.02,1-0.05,1.5-0.06c0.05,0,0.11,0.03,0.16,0.04
		c0.05,0.01,0.09,0.02,0.14,0.04c0-0.01,0.01-0.01,0.01-0.02l0.01,0.02l-0.01-0.02c0.01,0,0.02,0,0.03,0.01l0,0
		c0.03-0.03,0.06-0.06,0.1-0.06c0.04-0.01,0.09,0.03,0.13,0.05l0,0l0,0c-0.04,0.01-0.07,0.04-0.11,0.04c-0.03,0-0.05-0.01-0.08-0.02
		c-0.01,0-0.02-0.01-0.04-0.01l-0.01,0c0,0.01-0.01,0.01-0.02,0.01c-0.01,0-0.02,0-0.02-0.01c-0.01,0.02-0.02,0.03-0.03,0.04
		c-0.03,0.05-0.07,0.08-0.12,0.1c-0.03,0.01-0.06,0.02-0.09,0.03c-0.95,0.2-1.89,0.4-2.84,0.6c-0.77,0.16-1.54,0.33-2.31,0.49
		c-0.07,0.02-0.14,0.04-0.22,0.06c-0.09,0.02-0.19,0.04-0.27,0.08c-0.31,0.12-0.63,0.19-0.96,0.23c-0.12,0.02-0.24,0.04-0.36,0.05
		c-0.32,0.02-0.61,0.09-0.91,0.17c-0.16,0.05-0.32,0.1-0.48,0.16c-0.12,0.05-0.25,0.07-0.38,0.11c-0.09,0.03-0.18,0.06-0.27,0.08
		c-0.76,0.12-1.51,0.29-2.25,0.46c-0.77,0.18-1.54,0.37-2.31,0.56c-0.88,0.21-1.75,0.48-2.66,0.57c-0.1,0.01-0.19,0.05-0.28,0.08
		c-0.07,0.02-0.13,0.04-0.2,0.06c-0.12,0.04-0.24,0.08-0.36,0.12c-0.17,0.06-0.34,0.13-0.52,0.17c-0.66,0.16-1.32,0.32-1.99,0.43
		c-0.83,0.13-1.62,0.35-2.42,0.58l-0.14,0.04c-3.22,0.91-6.42,1.87-9.6,2.92c-0.27,0.09-0.53,0.19-0.79,0.3
		c-0.32,0.13-0.64,0.25-0.96,0.36c-0.72,0.25-1.45,0.48-2.18,0.73c-0.32,0.11-0.64,0.23-0.95,0.35c-0.22,0.08-0.43,0.16-0.65,0.24
		c-0.17,0.06-0.33,0.11-0.5,0.16c-0.24,0.07-0.48,0.14-0.71,0.23c-0.22,0.07-0.25,0.17-0.16,0.39c0.07,0.19,0.15,0.37,0.23,0.56
		c0.04,0.1,0.08,0.2,0.13,0.3c0.24,0.07,0.46,0.02,0.69-0.02c0.07-0.02,0.15-0.03,0.23-0.04c0.87-0.12,1.74-0.23,2.61-0.34
		c1.09-0.14,2.19-0.27,3.28-0.39c0.87-0.1,1.75-0.2,2.63-0.29c0.79-0.07,1.58-0.1,2.37-0.12c1.95-0.07,3.9-0.14,5.85-0.2
		c0.03,0,0.06,0,0.09-0.01c0.03,0,0.05,0,0.08,0c2.6-0.23,5.2,0.01,7.8,0.05c0.8,0.01,1.61,0.06,2.42,0.08
		c0.89,0.03,1.78,0.05,2.67,0.09c0.84,0.04,1.69,0.15,2.53,0.24c1.07,0.12,2.13,0.26,3.2,0.39c0.11,0.01,0.23,0.01,0.34,0.04
		c0.39,0.11,0.79,0.19,1.19,0.25c0.41,0.06,0.82,0.11,1.23,0.15c0.03,0,0.06,0.01,0.09,0.02c0.03,0,0.06,0.01,0.08,0.02
		c0.04,0.02,0.07,0.04,0.11,0.06c0.03,0.02,0.07,0.04,0.1,0.06C173.26,147.57,173.21,147.6,173.15,147.61z M150.44,152.74
		c-0.01,0-0.02,0-0.03,0c-0.02,0-0.04,0-0.05,0c-0.03-0.01-0.03-0.02-0.04-0.03c-0.01-0.01-0.02-0.01-0.02-0.02
		c0-0.01,0.02-0.02,0.06-0.01c0.01,0,0.02,0.01,0.03,0.01c0.01,0,0.03,0.01,0.04,0.02c0,0,0,0.01,0,0.02
		C150.43,152.72,150.44,152.73,150.44,152.74z M141.71,122.29c-0.02-0.05-0.03-0.1-0.06-0.16c-0.07-0.16-0.2-0.28-0.3-0.42
		c-0.09-0.13-0.16-0.28-0.28-0.39c-0.51-0.49-1.02-0.98-1.64-1.33c-0.04-0.07-0.09-0.1-0.14-0.12c0,0,0,0-0.01-0.01
		c-0.02-0.01-0.04-0.01-0.07-0.01c-0.16-0.03-0.35,0.01-0.46-0.15c-0.13-0.19-0.21-0.41-0.36-0.57c-0.18-0.19-0.36-0.37-0.55-0.55
		c-0.24-0.24-0.47-0.48-0.71-0.72c-0.21-0.2-0.35-0.43-0.44-0.71c-0.12-0.35-0.28-0.68-0.37-1.03c-0.02-0.08-0.03-0.17-0.04-0.26
		c-0.04-0.28-0.05-0.56-0.12-0.84c-0.04-0.21-0.05-0.4-0.03-0.6c0.02-0.16,0.04-0.32,0.09-0.49c0.09-0.33,0.2-0.65,0.3-0.98
		l0.03,0.01c0.05-0.13,0.11-0.26,0.14-0.4c0.07-0.33,0.21-0.61,0.37-0.88c0.22-0.37,0.5-0.71,0.81-1.02
		c0.04-0.05,0.08-0.09,0.13-0.14c0.03-0.03,0.07-0.06,0.1-0.09c0.05-0.05,0.09-0.11,0.15-0.13c0.06-0.02,0.1-0.06,0.16-0.09
		c0.53-0.26,0.99-0.63,1.56-0.83c0.38-0.14,0.76-0.26,1.16-0.33c0.13-0.02,0.26-0.06,0.39-0.07c0.13-0.01,0.23-0.03,0.32-0.09
		c0.08-0.06,0.14-0.15,0.18-0.28c0.12-0.41,0.27-0.81,0.42-1.21c0.04-0.1,0.11-0.23,0.18-0.25c0,0,0.01-0.01,0.01-0.01
		c0.09-0.02,0.18-0.05,0.27-0.07c0.18-0.05,0.37-0.07,0.56,0.04c0.04,0.02,0.09,0.03,0.13,0.07c0.02,0.02,0.05,0.02,0.07,0.04
		c0.12,0.07,0.26,0.11,0.4,0.15c0.65,0.2,1.3,0.4,1.95,0.6c0.11,0.04,0.22,0.08,0.33,0.12c0.05,0.02,0.09,0.03,0.14,0.05
		c0.06,0.02,0.1,0.06,0.13,0.1c0.01,0.01,0.03,0.01,0.03,0.03c0,0,0,0.01,0,0.01c0.03,0.05,0.04,0.12,0.02,0.19
		c-0.08,0.29-0.15,0.58-0.24,0.86c-0.02,0.07-0.04,0.14-0.06,0.21c-0.11,0.38-0.11,0.53,0.25,0.71c0.13,0.06,0.24,0.16,0.36,0.24
		c0.4,0.26,0.76,0.57,1.15,0.84c0.3,0.21,0.62,0.39,0.93,0.6c0.12,0.08,0.19,0.14,0.21,0.21l0,0c0.02,0.07,0.01,0.15-0.04,0.28
		c-0.18,0.47-0.35,0.94-0.56,1.4c-0.29,0.63-0.61,1.25-0.92,1.86c-0.07,0.14-0.14,0.27-0.2,0.41l0,0c-0.02,0.04-0.08,0.07-0.12,0.1
		c-0.03-0.05-0.07-0.09-0.09-0.14c-0.03-0.09-0.11-0.14-0.16-0.22c-0.06-0.08-0.09-0.18-0.18-0.25c-0.21-0.13-0.4-0.29-0.6-0.43
		c-0.34-0.25-0.69-0.51-1.09-0.69c-0.05-0.03-0.11-0.05-0.17-0.08c-0.11-0.05-0.21-0.1-0.26-0.19c-0.19-0.34-0.5-0.44-0.81-0.53
		c-0.17-0.05-0.34-0.09-0.5-0.16c-0.51,0.07-0.99-0.18-1.5-0.12c-0.08,0.01-0.17,0-0.24,0.04c-0.58,0.31-0.84,1.12-0.46,1.69
		c0.07,0.11,0.14,0.22,0.22,0.32c0.24,0.35,0.51,0.69,0.9,0.91c0.05,0.03,0.1,0.07,0.15,0.09c0.02,0.01,0.03,0.02,0.04,0.03
		c0.11,0.06,0.21,0.14,0.32,0.2c0.03,0.01,0.04,0.03,0.07,0.04c0.19,0.07,0.36,0.17,0.52,0.29c0.16,0.12,0.29,0.26,0.41,0.43
		c0.05,0.06,0.11,0.11,0.18,0.16c0.03,0.02,0.04,0.05,0.07,0.07c0.12,0.08,0.21,0.19,0.32,0.28c0.38,0.33,0.71,0.71,1.04,1.1
		c0.28,0.33,0.47,0.7,0.69,1.07c0.09,0.14,0.16,0.29,0.27,0.43c0.03,0.04,0.04,0.1,0.05,0.16c0.01,0.03,0.02,0.06,0.02,0.09
		c0.01,0.04,0.01,0.09,0.01,0.13c0.02,0.22,0.01,0.46,0.12,0.61c0.08,0.12,0.11,0.23,0.12,0.35c0,0,0,0.01,0,0.01c0,0,0,0.01,0,0.01
		c0.01,0.12,0.01,0.23,0.06,0.34c0.07,0.18,0.08,0.36,0.07,0.53c-0.01,0.22-0.06,0.43-0.14,0.63c-0.12,0.35-0.26,0.68-0.22,1.07
		c0.02,0.22-0.08,0.45-0.3,0.58c-0.01,0.01-0.01,0.02-0.02,0.02c-0.16,0.1-0.25,0.27-0.33,0.44c-0.21,0.47-0.47,0.9-0.86,1.25
		c-0.1,0.09-0.21,0.21-0.27,0.33c-0.06,0.11-0.14,0.2-0.21,0.29c-0.36,0.43-0.89,0.65-1.4,0.88c-0.1,0.04-0.22,0.05-0.32,0.08
		c-0.28,0.06-0.45,0.4-0.75,0.34c-0.07-0.01-0.12,0-0.19,0.01c-0.13,0.01-0.25,0.01-0.36,0.04c-0.06,0.01-0.12,0.03-0.18,0.03
		c-0.29,0.01-0.51,0.24-0.82,0.15c-0.12-0.04-0.21,0.04-0.29,0.15c-0.03,0.04-0.07,0.08-0.09,0.13c-0.12,0.38-0.23,0.76-0.35,1.14
		c-0.02,0.07-0.07,0.12-0.13,0.15c-0.07,0.04-0.14,0.05-0.21,0.01c-0.34-0.2-0.75-0.21-1.09-0.43c-0.11-0.07-0.24-0.12-0.38-0.15
		c-0.04-0.01-0.08-0.03-0.12-0.04c-0.13-0.03-0.26-0.06-0.38-0.1c-0.27-0.09-0.57-0.03-0.8-0.24c-0.04-0.03-0.11-0.04-0.18-0.04
		c-0.05,0-0.1,0-0.15,0.01c-0.21,0.01-0.38-0.05-0.55-0.17c-0.1-0.07-0.17-0.12-0.21-0.17c-0.09-0.1-0.08-0.2,0.03-0.4
		c0.21-0.38,0.17-0.81,0.34-1.2c0.01-0.02,0-0.06-0.01-0.1c0-0.01,0-0.01,0-0.02c0-0.01-0.01-0.01-0.01-0.02
		c-0.02-0.04-0.04-0.07-0.06-0.09c-0.09-0.1-0.2-0.18-0.3-0.26c-0.05-0.04-0.11-0.07-0.17-0.09c-0.12-0.06-0.25-0.12-0.4-0.1
		c-0.11,0.01-0.17-0.03-0.23-0.06c-0.12-0.05-0.2-0.15-0.21-0.31c0-0.06-0.03-0.1-0.05-0.14c-0.04-0.11-0.11-0.19-0.21-0.26
		c-0.02-0.02-0.05-0.03-0.08-0.05c-0.09-0.06-0.19-0.12-0.29-0.17c-0.07-0.03-0.15-0.06-0.23-0.08c-0.03-0.01-0.06-0.03-0.09-0.04
		c-0.07-0.03-0.14-0.05-0.2-0.1c-0.06-0.05-0.1-0.12-0.13-0.2c-0.04-0.08-0.08-0.16-0.14-0.23c-0.09-0.1-0.22-0.17-0.34-0.23
		c-0.14-0.07-0.22-0.15-0.28-0.22c-0.09-0.11-0.09-0.25-0.02-0.43c0.02-0.04,0.02-0.08,0.04-0.13c0.01-0.02,0.03-0.05,0.04-0.08
		c0.34-1.15,1-2.15,1.56-3.19c0.07-0.14,0.13-0.21,0.2-0.23c0.06-0.02,0.13,0.03,0.22,0.13c0.59,0.72,1.31,1.28,2.05,1.83
		c0.31,0.23,0.62,0.46,0.92,0.7c0.11,0.09,0.26,0.14,0.39,0.2c0.05,0.02,0.09,0.05,0.13,0.07c0.15,0.07,0.31,0.13,0.46,0.19
		c0.06,0.02,0.11,0.05,0.17,0.08c0.15,0.06,0.3,0.13,0.45,0.22c0.09,0.05,0.19,0.08,0.28,0.11c0.47,0.16,0.95,0.04,1.4-0.17
		c0.06-0.03,0.11-0.05,0.17-0.08c0.18-0.09,0.26-0.35,0.41-0.53c0.07-0.08,0.11-0.15,0.15-0.23
		C141.83,122.89,141.82,122.6,141.71,122.29z M177.36,166.04c-0.16,0.03-0.32,0.04-0.47,0.06l0,0c-0.03-0.02-0.04-0.03-0.05-0.04
		c-0.01-0.01-0.03-0.02-0.02-0.02c0.01-0.04,0.03-0.1,0.06-0.11l0,0c0.13-0.04,0.26-0.08,0.4-0.1c0.05-0.01,0.11-0.01,0.16-0.01
		c0.17,0.01,0.33,0.07,0.29,0.09C177.61,165.97,177.49,166.01,177.36,166.04z M179.36,165.73c-0.03,0.02-0.06,0.04-0.08,0.04
		c-0.04,0-0.08-0.02-0.12-0.03l0,0c-0.01,0.01-0.02,0.01-0.02,0.02l-0.01-0.03l0.01,0.03c-0.01,0-0.03,0-0.04-0.01
		c-0.03,0.03-0.06,0.06-0.09,0.06c-0.04,0.01-0.08-0.03-0.13-0.05c0.04-0.02,0.07-0.04,0.11-0.04l0,0c0.04,0,0.07,0.01,0.11,0.03
		c0.01-0.01,0.02-0.01,0.03-0.02c0.01,0,0.02,0,0.04,0.01c0,0,0,0,0,0c0.03-0.03,0.06-0.07,0.09-0.07c0.04-0.01,0.09,0.03,0.14,0.05
		C179.38,165.72,179.37,165.72,179.36,165.73z M188.78,126.87c0.32,0.57,0.54,1.17,0.54,1.86c0,0.52,0.22,1,0.43,1.46
		c0.31,0.7,0.53,1.44,0.77,2.16c0.13,0.4,0.29,0.8,0.47,1.19c0.18,0.39,0.38,0.76,0.6,1.13c0.02,0.02,0.03,0.05,0.05,0.08
		c0.18,0.28,0.36,0.56,0.34,0.93c-0.01,0.18,0.12,0.37,0.2,0.55c0.08,0.18,0.22,0.32,0.2,0.55c-0.01,0.15,0.12,0.24,0.23,0.33
		c0.13,0.11,0.25,0.24,0.07,0.43c-0.03,0.03,0.02,0.15,0.05,0.23c0.09,0.24,0.17,0.48,0.3,0.7c0.08,0.14,0.01,0.21-0.08,0.26
		c-0.04,0.02-0.09,0.04-0.13,0.06c-0.16,0.08-0.33,0.15-0.49,0.23c-0.07,0.03-0.13,0.05-0.19,0.05l0,0c-0.03,0-0.06-0.03-0.09-0.05
		c-0.03-0.02-0.07-0.01-0.09-0.05c-0.02-0.02-0.11-0.02-0.14,0c-0.09,0.06-0.19,0.13-0.25,0.22c-0.02,0.04-0.06,0.06-0.09,0.08
		c-0.1,0.1-0.21,0.17-0.34,0.18c-0.16,0.02-0.33,0.01-0.5,0.03c0,0-0.01-0.01-0.01-0.01c-0.04,0-0.09-0.04-0.13-0.07
		c-0.06-0.05-0.12-0.11-0.17-0.17c0-0.01-0.01-0.01-0.01-0.01c-0.37-0.4-0.73-0.8-1.08-1.2c-0.51-0.57-1-1.15-1.47-1.75
		c-0.39-0.51-0.7-1.06-1.03-1.6c-0.02-0.04-0.04-0.08-0.07-0.11c-0.42-0.67-0.8-1.37-1.2-2.05c-0.29-0.48-0.67-0.91-1.01-1.37
		c-0.07-0.09-0.15-0.18-0.2-0.27c-0.03-0.06-0.08-0.12-0.11-0.18c-0.3-0.53-0.66-1.01-1.11-1.42c-0.05-0.04-0.08-0.09-0.12-0.13
		c-0.01-0.01,0-0.01-0.01-0.02c-0.14-0.14-0.14-0.35-0.23-0.5c-0.2-0.32-0.44-0.62-0.67-0.93c-0.01-0.01-0.02-0.02-0.02-0.03
		c-0.15-0.21-0.33-0.4-0.44-0.62c-0.17-0.33-0.3-0.67-0.66-0.85c-0.07-0.03-0.14-0.13-0.15-0.2c-0.01-0.12-0.05-0.22-0.1-0.31
		c-0.01-0.02-0.03-0.04-0.04-0.06c-0.15-0.25-0.39-0.43-0.58-0.65c-0.41-0.47-0.8-0.95-1.2-1.43c-0.02-0.02-0.04-0.05-0.06-0.07
		c-0.01-0.02-0.03-0.03-0.05-0.05c-0.18-0.21-0.36-0.4-0.61-0.53c-0.04-0.02-0.06-0.05-0.1-0.07c-0.03-0.01-0.03-0.04-0.05-0.05
		c-0.23-0.13-0.32-0.4-0.38-0.67c0-0.01-0.01-0.02-0.01-0.04c0.06-0.07,0.07-0.14,0.05-0.2c-0.02-0.06-0.07-0.12-0.11-0.17
		c-0.36-0.4-0.72-0.8-1.08-1.2c-0.06-0.06-0.11-0.14-0.18-0.17c-0.52-0.24-0.82-0.68-1.06-1.17c-0.18-0.37-0.43-0.66-0.81-0.84
		c-0.26-0.12-0.47-0.3-0.55-0.6c-0.02-0.1-0.12-0.19-0.21-0.26c-0.02-0.02-0.04-0.05-0.07-0.07c-0.44-0.39-0.83-0.81-1.19-1.28
		c-0.17-0.23-0.41-0.42-0.63-0.61c-0.01-0.01-0.03-0.03-0.04-0.04c-0.63-0.57-1.26-1.12-1.82-1.77c-0.49-0.58-1.1-1.06-1.66-1.58
		c-0.39-0.37-0.78-0.74-1.15-1.13c-0.08-0.08-0.16-0.16-0.24-0.24c-0.82-0.86-1.68-1.68-2.62-2.41c-0.35-0.27-0.69-0.56-1.03-0.84
		c-0.03-0.02-0.06-0.05-0.09-0.07c-0.46-0.37-0.94-0.72-1.47-1c-0.09-0.05-0.18-0.11-0.28-0.17c-0.43-0.25-0.85-0.51-1.26-0.78
		c-0.09-0.05-0.17-0.11-0.26-0.17c-1.08-0.68-2.25-1.19-3.46-1.6c-0.07-0.02-0.15-0.04-0.22-0.07c-0.29-0.09-0.58-0.17-0.87-0.28
		c-0.07-0.03-0.14-0.04-0.21-0.07c-0.41-0.18-0.83-0.32-1.24-0.5c-0.59-0.26-1.23-0.41-1.85-0.61c-0.81-0.26-1.62-0.51-2.43-0.76
		c-0.19-0.06-0.39-0.12-0.58-0.12c-0.34-0.01-0.67-0.11-0.99-0.19c-0.43-0.11-0.88-0.17-1.33-0.22c-0.45-0.04-0.89-0.15-1.34-0.2
		c-0.19-0.02-0.38-0.02-0.57-0.03c-0.61-0.04-1.22-0.04-1.82-0.01c-0.22,0.01-0.44,0.01-0.65,0.03c-0.06,0-0.13-0.01-0.17,0.02
		c-0.08,0.06-0.17,0.09-0.26,0.12c-0.3,0.12-0.62,0.09-0.93,0.03c-0.09-0.02-0.18-0.03-0.27-0.05c-0.27-0.05-0.57-0.01-0.84,0.04
		c-0.83,0.17-1.66,0.34-2.49,0.55c-0.06,0.02-0.12,0.04-0.18,0.05c-0.34,0.09-0.66,0.21-0.97,0.37c-0.06,0.03-0.13,0.05-0.19,0.09
		c-0.06,0.04-0.13,0.05-0.2,0.08c-0.22,0.09-0.45,0.15-0.69,0.2c-0.23,0.05-0.46,0.09-0.68,0.14c-0.3,0.06-0.6,0.14-0.88,0.26
		c-0.85,0.37-1.66,0.83-2.48,1.28c-0.27,0.15-0.51,0.36-0.75,0.55c-0.43,0.34-0.78,0.74-0.97,1.26c-0.05,0.15-0.13,0.26-0.22,0.35
		c-0.08,0.08-0.18,0.14-0.3,0.17c-0.4,0.1-0.72,0.32-1.05,0.54c-0.21,0.14-0.43,0.25-0.65,0.37c-0.11,0.06-0.21,0.12-0.31,0.17
		c-0.12,0.07-0.26,0.17-0.37,0.05c-0.04-0.04,0.04-0.2,0.06-0.3c0.01-0.08,0.03-0.16,0.03-0.24c-0.01-0.46,0.07-0.9,0.19-1.34
		c0.09-0.3,0.09-0.62,0.16-0.92c0.06-0.28,0.17-0.54,0.25-0.81l-0.03-0.01c0.02-0.08,0.04-0.17,0.06-0.25
		c0.13-0.69,0.48-1.26,0.98-1.75c0.88-0.89,1.83-1.69,2.89-2.35c0.2-0.12,0.4-0.25,0.6-0.38c0.44-0.29,0.88-0.59,1.35-0.84
		c0.36-0.2,0.71-0.4,1.07-0.6c0.49-0.26,0.98-0.51,1.5-0.72c0.07-0.03,0.14-0.07,0.21-0.1c0.32-0.14,0.64-0.29,0.94-0.45
		c0.32-0.16,0.65-0.28,0.99-0.39c0.09-0.03,0.17-0.08,0.27-0.11c0.46-0.12,0.93-0.26,1.37-0.44c0.2-0.08,0.4-0.12,0.61-0.17
		c0.34-0.09,0.69-0.18,1.03-0.25c0.2-0.04,0.39-0.07,0.58-0.13c0.14-0.04,0.29-0.04,0.41-0.1c0.54-0.3,1.14-0.35,1.72-0.41
		c0.64-0.07,1.27-0.29,1.93-0.2c0.65-0.25,1.35-0.12,2.01-0.26c0.5-0.11,1.01-0.08,1.52-0.08c0.93,0,1.85,0.16,2.79,0.14
		c0.93-0.01,1.85,0.19,2.75,0.4c0.11,0.03,0.22,0.09,0.33,0.09c0.34,0.02,0.67,0.02,1.01,0.03c0.23,0.25,0.55,0.27,0.85,0.35
		c0.23,0.07,0.44,0.07,0.67,0.04c0.31-0.04,0.62,0,0.89,0.2c0.13,0.1,0.3,0.16,0.46,0.21c1.35,0.43,2.7,0.86,4.05,1.3
		c0.19,0.06,0.39,0.12,0.54,0.23c0.52,0.36,1.09,0.61,1.68,0.8c0.54,0.18,1.04,0.44,1.51,0.76c0.05,0.03,0.09,0.08,0.14,0.1
		c0.07,0.02,0.13,0.07,0.2,0.1c0.54,0.21,1,0.56,1.52,0.81c0.41,0.2,0.8,0.44,1.21,0.65c0.05,0.02,0.09,0.05,0.14,0.07
		c0.15,0.07,0.31,0.13,0.46,0.19c0.19,0.07,0.37,0.15,0.55,0.24c0.22,0.13,0.41,0.28,0.61,0.44c0.09,0.07,0.18,0.14,0.27,0.21
		c0.11,0.08,0.24,0.15,0.37,0.21c0.05,0.02,0.09,0.05,0.14,0.08c0.28,0.13,0.52,0.31,0.75,0.52c0.03,0.03,0.06,0.05,0.08,0.07
		c0.23,0.24,0.52,0.45,0.81,0.61c0.5,0.27,0.9,0.7,1.45,0.87c0.52,0.5,1.22,0.7,1.81,1.08c0.04,0.02,0.07,0.05,0.1,0.08
		c0.31,0.21,0.61,0.45,0.91,0.69c0.33,0.26,0.65,0.53,0.96,0.81c0.02,0.02,0.05,0.04,0.08,0.06c0.53,0.5,1.12,0.96,1.5,1.61
		c0.01,0.01,0.02,0.02,0.03,0.03c0.13,0.2,0.32,0.36,0.5,0.52c0.52,0.48,1.05,0.96,1.58,1.43c0.04,0.03,0.08,0.07,0.11,0.1
		c0.15,0.13,0.3,0.29,0.48,0.34c0.39,0.11,0.59,0.37,0.73,0.67c0.02,0.05,0.04,0.1,0.05,0.15c0.02,0.06,0.04,0.11,0.06,0.16
		c0.11,0.38,0.06,0.81,0.22,1.16c0.15,0.33,0.37,0.64,0.47,0.99c0.12,0.41,0.21,0.82,0.33,1.23c0.12,0.44,0.24,0.87,0.37,1.31
		c0.05,0.19,0.11,0.38,0.16,0.57c0.02,0.05,0.03,0.11,0.05,0.16c0.04,0.11,0.08,0.21,0.09,0.33c0.1,0.63,0.3,1.23,0.5,1.82
		c0.06,0.18,0.12,0.36,0.19,0.54c0.03,0.08,0.05,0.16,0.08,0.24c0.16,0.46,0.3,0.91,0.33,1.4c0.02,0.34,0.14,0.66,0.38,0.92
		c0,0,0,0.01,0,0.01c0.13,0.14,0.18,0.29,0.17,0.46c-0.01,0.23,0.03,0.45,0.14,0.66c0.41,0.82,0.62,1.69,0.75,2.59
		c0.03,0.19,0.07,0.37,0.12,0.55c0.05,0.19,0.13,0.37,0.21,0.55C188.73,126.75,188.75,126.81,188.78,126.87z M202.22,78.22
		c-0.03-0.03-0.05-0.05-0.06-0.08c-0.01-0.04,0.03-0.09,0.05-0.13c0.01,0.04,0.02,0.08,0.02,0.12
		C202.24,78.16,202.23,78.19,202.22,78.22z M213.53,47.89c-0.16,0.48-0.32,0.97-0.49,1.45c-0.05,0.13-0.09,0.28-0.19,0.37
		c-0.09,0.08-0.15,0.19-0.22,0.29c-0.16,0.22-0.33,0.45-0.48,0.68c-0.06,0.09-0.11,0.19-0.18,0.27c-0.03,0.03-0.04,0.07-0.06,0.11
		c-0.04,0.07-0.08,0.15-0.12,0.22c-0.02,0.04-0.03,0.08-0.05,0.12c-0.17,0.33-0.32,0.66-0.5,0.98c-0.02,0.03-0.05,0.06-0.07,0.1
		c-0.04,0.06-0.09,0.09-0.14,0.13c-0.03,0.02-0.05,0.04-0.08,0.05c-0.06,0.01-0.08,0.04-0.12,0.05c-0.08,0.04-0.14,0.1-0.16,0.18
		c-0.01,0.04-0.03,0.07-0.04,0.13c-0.08,0.6-0.43,1.11-0.72,1.62c-0.09,0.16-0.19,0.31-0.29,0.47c-0.2,0.31-0.41,0.61-0.64,0.9
		c-0.11,0.14-0.22,0.3-0.34,0.43c-0.65,0.73-1.13,1.55-1.54,2.42c-0.34,0.71-0.71,1.41-1.11,2.09c-0.23,0.39-0.46,0.78-0.63,1.2
		c-0.13,0.33-0.3,0.63-0.49,0.93c-0.16,0.25-0.33,0.5-0.5,0.75c-0.28,0.4-0.52,0.82-0.76,1.25c-0.07,0.11-0.14,0.22-0.2,0.34
		c-0.46,0.78-0.92,1.56-1.39,2.33c-0.18,0.29-0.39,0.55-0.59,0.83c-0.12,0.16-0.26,0.3-0.35,0.48c-0.42,0.78-1.01,1.44-1.55,2.13
		c-0.33,0.43-0.68,0.84-0.98,1.29c-0.83,1.26-1.83,2.37-2.84,3.48c-0.99,1.09-1.93,2.22-2.9,3.33c-0.02,0.03-0.04,0.05-0.07,0.07
		c-0.05,0.06-0.11,0.12-0.16,0.18c-0.31,0.29-0.59,0.6-0.87,0.92c-0.39,0.45-0.77,0.91-1.11,1.4c-0.19,0.26-0.41,0.49-0.62,0.73
		c-0.33,0.38-0.66,0.75-1.01,1.1c-0.26,0.26-0.52,0.52-0.78,0.78c-0.11,0.12-0.24,0.13-0.4,0.03c-0.02-0.01-0.03,0-0.04-0.02
		c-0.11-0.08-0.16-0.19-0.26-0.27c-0.57-0.51-0.98-1.13-1.25-1.86c-0.04-0.12-0.12-0.22-0.16-0.35c-0.25-0.87-0.43-1.75-0.69-2.61
		c-0.02-0.05-0.03-0.1-0.05-0.15c-0.07-0.22-0.15-0.43-0.23-0.65c-0.06-0.18,0-0.32,0.13-0.46c0.31-0.31,0.61-0.63,0.91-0.95
		c0.07-0.07,0.14-0.15,0.21-0.22c0.04-0.04,0.08-0.07,0.12-0.11c0.05-0.05,0.09-0.1,0.13-0.15c0.03-0.04,0.07-0.08,0.08-0.12
		c0.06-0.28,0.22-0.47,0.4-0.62c0.15-0.12,0.33-0.22,0.51-0.32c0.02-0.01,0.04-0.02,0.05-0.04c0.01,0,0.01-0.01,0.02-0.01
		c0.77-0.79,1.52-1.6,2.09-2.56c0.15-0.25,0.3-0.47,0.5-0.68c0.23-0.24,0.46-0.48,0.67-0.73c0.19-0.22,0.36-0.45,0.47-0.73
		c0.03-0.08,0.11-0.14,0.19-0.2c0.02-0.01,0.03-0.03,0.04-0.05c0.35-0.33,0.65-0.7,0.89-1.11l0.01-0.01
		c0.29-0.48,0.59-0.95,0.95-1.38l0-0.01c0.37-0.43,0.72-0.88,1.09-1.31c0.52-0.61,0.93-1.27,1.19-2.04
		c0.17-0.51,0.47-0.97,0.65-1.47c0.06-0.18,0.15-0.36,0.23-0.53c0.13-0.29,0.26-0.57,0.4-0.85c0.08-0.15,0.15-0.3,0.23-0.45
		c0.03-0.06,0.04-0.12,0.07-0.18c0.12-0.28,0.22-0.56,0.32-0.85c0.02-0.05,0-0.09-0.01-0.13c-0.02-0.06-0.07-0.11-0.14-0.12
		c-0.14-0.02-0.28-0.06-0.41-0.09c-0.27-0.06-0.55-0.11-0.83-0.16c-0.14-0.02-0.28-0.06-0.42-0.06c-0.42-0.01-0.84-0.07-1.26-0.13
		c-0.21-0.03-0.34-0.28-0.23-0.45c0.34-0.52,0.4-1.18,0.8-1.68c0.12-0.15,0.03-0.64-0.15-0.68c-0.01,0-0.02-0.01-0.04-0.01
		c-0.15-0.04-0.29-0.16-0.45-0.18c-0.06-0.01-0.13,0-0.21,0.04c-0.29,0.16-0.61,0.2-0.93,0.23c-0.08,0.01-0.15,0.02-0.22,0.02
		c-0.81,0.07-1.62,0.15-2.41,0.37c-0.06,0.02-0.13,0.01-0.19,0.02c-0.27,0.04-0.55,0.03-0.83,0.05l0,0c-0.02,0-0.04-0.01-0.05-0.02
		c0,0-0.01,0-0.01-0.01c0-0.04,0-0.1,0.02-0.14c0.06-0.1,0.14-0.18,0.2-0.27c0.02-0.04,0.04-0.11,0.02-0.14
		c-0.01-0.01-0.03-0.02-0.05-0.03c-0.03-0.02-0.06-0.05-0.09-0.05c-0.11-0.01-0.23,0.03-0.34,0.01c-0.18-0.03-0.36-0.08-0.54-0.13
		c-0.01,0.01-0.01,0.01-0.02,0.02c-0.01,0-0.02,0-0.04-0.01c-0.03,0.02-0.05,0.04-0.08,0.07c0,0,0,0,0,0c0,0,0,0,0,0
		c-0.02-0.07,0.01-0.08,0.03-0.07c0.01,0,0.02,0,0.04,0.01l0.01,0c0,0,0,0,0,0l0.02-0.02l0.03,0.01c0.05-0.14,0.17-0.19,0.29-0.23
		c0.03-0.01,0.06-0.02,0.09-0.03c0.46-0.12,0.94-0.21,1.34-0.51c0.04-0.03,0.1-0.06,0.16-0.06c0.1-0.02,0.18-0.07,0.28-0.09
		c0.56-0.14,1.08-0.36,1.6-0.6c0.16-0.08,0.32-0.15,0.49-0.22c1.02-0.42,2.05-0.81,3.08-1.21c0.29-0.11,0.59-0.18,0.91-0.17
		c0.08,0,0.18-0.01,0.27-0.03c0.08-0.02,0.15-0.05,0.2-0.1c0.39-0.33,0.75-0.69,1.12-1.04c0.04-0.03,0.04-0.09,0.04-0.14
		c-0.01-0.06-0.04-0.12-0.09-0.15c-0.06-0.04-0.13-0.05-0.19-0.08c-0.07-0.03-0.13-0.07-0.2-0.08c-0.07-0.01-0.14,0-0.21,0.01
		c-0.07,0-0.14-0.01-0.21,0.01c-0.56,0.11-1.12,0.2-1.67,0.31c-0.45,0.09-0.89,0.09-1.35,0.08c-0.53-0.02-1.06-0.02-1.59,0
		c-0.98,0.03-1.96,0.15-2.92,0.41c-0.18,0.05-0.35,0.08-0.53,0.14c-0.12,0.04-0.24,0.07-0.36,0.1c-0.24,0.07-0.49,0.12-0.74,0.15
		c-0.13,0.02-0.25,0.04-0.38,0.05c-0.33,0.01-0.67,0.13-0.99,0.23c-0.52,0.16-1.04,0.29-1.56,0.42c-0.32,0.08-0.64,0.17-0.97,0.25
		c-0.44,0.11-0.89,0.21-1.33,0.33c-0.63,0.17-1.24,0.4-1.85,0.62c-0.2,0.07-0.38,0.16-0.57,0.24c-0.71,0.28-1.39,0.6-2.06,0.97
		c-0.12,0.07-0.25,0.12-0.37,0.19c-0.54,0.31-1.07,0.62-1.6,0.94c-0.85,0.51-1.69,1.04-2.46,1.66c-0.03,0.03-0.07,0.02-0.1,0.03
		c-0.03,0.01-0.06,0.03-0.08,0.02c-0.04-0.01-0.06-0.06-0.09-0.11c-0.01-0.02-0.04-0.02-0.05-0.06c-0.04-0.1-0.11-0.19-0.16-0.28
		c-0.14-0.26-0.32-0.51-0.52-0.73c-0.07-0.07-0.13-0.15-0.2-0.23c-0.32-0.34-0.62-0.71-0.92-1.07c-0.26-0.31-0.52-0.62-0.81-0.91
		c-0.06-0.07-0.12-0.15-0.16-0.24c-0.05-0.09-0.08-0.18-0.12-0.27c-0.04-0.1-0.03-0.23,0-0.33c0.02-0.06,0.13-0.1,0.2-0.15
		c0.25-0.18,0.27-0.23,0.08-0.46c-0.37-0.44-0.62-0.95-0.75-1.51c-0.02-0.08-0.07-0.16-0.07-0.24c-0.02-0.55-0.04-0.77,0.11-0.9
		c0.11-0.1,0.3-0.15,0.7-0.22c0.34-0.06,0.65-0.15,0.95-0.3c0.1-0.05,0.21-0.08,0.3-0.15c0.26-0.19,0.67-0.16,0.94-0.34
		c0.27-0.17,0.56-0.26,0.84-0.4c0.02-0.01,0.05-0.02,0.08-0.03c0.7-0.18,1.48-0.09,2.11-0.55c0.69-0.14,1.39-0.27,2.08-0.41
		c0.11-0.02,0.23-0.03,0.33-0.08c0.05-0.02,0.11-0.04,0.16-0.07c0.44-0.19,0.88-0.39,1.38-0.35c0.04,0,0.08-0.02,0.11-0.03
		c0.02-0.01,0.03-0.01,0.05-0.01c0.62-0.3,1.3-0.37,1.96-0.51c0.22-0.05,0.44-0.1,0.67-0.15c0.16-0.03,0.33-0.06,0.49-0.09
		c0.25-0.05,0.5-0.09,0.76-0.1c0.13,0,0.3-0.05,0.39-0.14c0.13-0.11,0.27-0.18,0.4-0.23c0.26-0.09,0.53-0.1,0.81-0.06
		c0.05,0,0.1,0.01,0.15,0.01c0.26,0.04,0.46,0.05,0.71-0.11c0.14-0.09,0.32-0.1,0.51-0.12c0.16-0.01,0.32-0.02,0.46-0.11
		c0.69,0.07,1.34-0.14,2.01-0.25c0.11-0.02,0.22-0.04,0.33-0.05c0.45-0.05,0.89-0.06,1.34-0.05c0.65,0.02,1.3,0,1.94-0.02
		c0.38-0.01,0.75-0.06,1.13-0.09c0.33-0.03,0.66-0.04,0.98,0c0.19,0.02,0.39-0.04,0.58-0.09c0.49-0.13,0.99-0.19,1.5-0.18
		c0.46,0.01,0.92-0.05,1.37-0.1c0.1-0.01,0.21-0.01,0.32-0.02c0.76-0.07,1.52-0.04,2.29-0.07c0.14,0,0.25,0.05,0.36,0.11
		c0.04,0.02,0.07,0.04,0.11,0.06l0,0c0.3,0.14,0.59,0.2,0.89,0.02c0.24-0.15,0.51-0.15,0.77-0.13c0.07,0,0.15,0,0.22,0.01
		c0.05,0,0.1,0.01,0.15,0.02c0.2,0.04,0.39,0.1,0.6,0c0.03-0.01,0.08,0.01,0.12,0.03c0.04,0.01,0.08,0.01,0.11,0.03
		c0.63,0.34,1.32,0.27,1.99,0.23c0.28-0.02,0.56-0.02,0.84-0.02c0.62,0.01,1.24,0.11,1.86,0.1c0.07,0,0.15,0.01,0.23,0.02
		c0.08,0,0.15,0,0.23,0.02c0.07,0.02,0.15,0.06,0.22,0.09c0.07,0.03,0.15,0.04,0.22,0.09c0.01,0.01,0.02,0,0.03,0.01
		c0.29,0.17,0.65,0.18,0.96,0.15c0.14-0.01,0.28-0.01,0.41,0.01c0.13,0.02,0.26,0.06,0.38,0.1c0.2,0.07,0.39,0.15,0.58,0.22
		c0.05,0.02,0.11,0.04,0.16,0.06c0.07,0.03,0.12,0.18,0.15,0.28C213.61,47.72,213.56,47.81,213.53,47.89z"/>
	<polygon class="st0" points="46.58,97.86 46.55,97.87 46.55,97.88 	"/>
</g>
</svg>
